<?xml version="1.0" standalone="no"?>
<!DOCTYPE svg PUBLIC "-//W3C//DTD SVG 1.1//EN" "http://www.w3.org/Graphics/SVG/1.1/DTD/svg11.dtd" >
<svg xmlns="http://www.w3.org/2000/svg" xmlns:xlink="http://www.w3.org/1999/xlink" version="1.1">
<metadata>
Created by FontForge 20190801 at Fri Jul  3 18:28:37 2020
 By Unknown
No copyright is claimed on this font file.
</metadata>
<defs>
<font id="Gonville-Brace" horiz-adv-x="0" >
  <font-face 
    font-family="Gonville-Brace"
    font-weight="400"
    font-stretch="normal"
    units-per-em="1000"
    panose-1="2 0 5 3 0 0 0 0 0 0"
    ascent="800"
    descent="-200"
    bbox="-1827.44 -11978.9 1.77636e-15 11978.9"
    underline-thickness="50"
    underline-position="-100"
    unicode-range="U+E100-E33F"
  />
    <missing-glyph />
    <glyph glyph-name="brace0" unicode="&#xe100;" 
d="M-10.1814 262.465c-3.0223 -0.536 -5.1372 -1.958 -6.6233 -4.459c-1.7791 -3 -6.3304 -11.739 -8.8454 -17.004c-15.9508 -33.389 -23.9698 -66.638 -23.9698 -98.856c0 -19.331 2.887 -38.292 8.6798 -56.6882c0.2929 -0.9217 1.0003 -3.058 1.5719 -4.7514
c1.9719 -5.7944 2.9437 -9.2526 3.8582 -13.7252c1.2579 -6.1665 1.8768 -12.088 1.8768 -17.6941c0 -18.1809 -6.5095 -33.0438 -18.8459 -42.18c-2.5507 -1.89339 -3.751 -4.2512 -3.751 -7.3878c0 -3.1366 1.2003 -5.4944 3.751 -7.3878
c12.3369 -9.13574 18.8449 -24.0011 18.8449 -42.1749c0 -5.7187 -0.6444 -11.765 -1.9544 -18.0635c-0.9003 -4.3226 -1.8505 -7.7021 -3.7796 -13.3609c-6.0589 -17.8407 -9.0312 -33.5382 -10.0529 -53.1582c-0.0634 -1.169 -0.0938 -4.486 -0.0938 -7.844
c0 -3.455 0.0322 -6.953 0.0938 -8.196c1.5505 -30.494 8.874 -58.795 23.0279 -88.953c3.2081 -6.838 9.0597 -18.02 10.2529 -19.577c1.7791 -2.337 4.4674 -3.505 7.16098 -3.505c2.69362 0 5.3926 1.168 7.1931 3.505c1.24321 1.621 1.77908 3.272 1.78622 5.501
c0 2.086 -0.228636 2.887 -1.48613 5.166c-12.1853 22.097 -18.287 47.421 -18.287 75.289c0 24.503 4.7173 50.974 14.1644 78.9472c2.54357 7.5378 3.42953 11.1531 4.32264 17.6121c0.405185 2.9493 0.610672 6.4721 0.610672 10.0056
c0 2.9465 -0.142896 5.9005 -0.432042 8.5353c-2.32209 21.0845 -13.0679 40.9687 -30.6872 56.766c-0.5073 0.457273 -0.9288 0.857386 -0.9288 0.893111c0 0.035724 0.4215 0.435837 0.9288 0.893108c17.6193 15.7974 28.3652 35.6815 30.6872 56.766
c0.289146 2.6349 0.432042 5.5888 0.432042 8.5354c0 3.5335 -0.205487 7.0563 -0.610672 10.0056c-0.87882 6.3804 -1.79336 10.1243 -4.21547 17.2906c-9.55625 28.273 -14.3293 54.964 -14.3293 79.645c0 27.946 6.1199 53.315 18.3447 75.484
c1.25749 2.28 1.48613 3.08 1.48613 5.166c-0.00714487 4.301 -2.65075 7.717 -6.78763 8.767c-0.51979 0.128 -1.84337 0.229 -2.71683 0.229c-0.29116 0 -0.53234 -0.011 -0.67694 -0.036z" />
    <glyph glyph-name="brace1" unicode="&#xe101;" 
d="M-10.7148 264.242c-3.446 -0.381 -5.5611 -1.979 -7.6762 -5.791c-17.7408 -31.914 -28.6616 -63.986 -32.2515 -94.64c-0.8826 -7.554 -1.321 -15.118 -1.321 -22.636c0 -19.997 3.1021 -39.665 9.1986 -57.939c0.3094 -0.9281 0.9065 -2.6978 1.3237 -3.9281
c3.8435 -11.3385 5.7338 -22.0591 5.7338 -31.7784c0 -17.2605 -5.9615 -31.3635 -17.5322 -40.1635c-2.8993 -2.20862 -4.1511 -4.51795 -4.1511 -7.65462c0 -3.13667 1.2518 -5.44601 4.1511 -7.65463c11.5707 -8.79996 17.5322 -22.9119 17.5322 -40.1731
c0 -9.7197 -1.8903 -20.4381 -5.7338 -31.7689c-1.8633 -5.4963 -2.7769 -8.3812 -3.7194 -11.8056c-3.8632 -13.9782 -5.7409 -25.7842 -6.6042 -41.4022c-0.0991 -1.817 -0.1462 -4.18 -0.1462 -6.775c0 -4.939 0.1705 -10.712 0.4771 -15.132
c2.3309 -33.23 13.6042 -68.524 33.0429 -103.452c1.7482 -3.144 3.1943 -4.511 5.6619 -5.353c0.9851 -0.333 1.9677 -0.488 2.92226 -0.488c4.87601 0 9.01965 4.044 9.01965 9.03c0 0.696 -0.080702 1.41 -0.251374 2.134c-0.21583 0.936 -0.51799 1.605 -1.55395 3.518
c-11.5541 21.169 -17.3322 45.416 -17.3322 72.382c0 25.438 5.1414 53.295 15.4257 83.272c3.00859 8.7545 4.49897 17.3467 4.49897 26.0524c0 3.9929 -0.31351 8.0096 -0.937845 12.0768c-3.05033 19.892 -13.5611 38.1652 -30.9998 53.8845
c-0.5971 0.53237 -1.259 1.1223 -1.4748 1.31654l-0.3957 0.338127l0.3957 0.345322c21.7698 18.873 33.3994 42.4486 33.3994 67.0886c0 3.9978 -0.306146 8.0236 -0.924797 12.0619c-0.748195 4.8849 -1.77696 8.9784 -3.56112 14.1726
c-8.73373 25.4822 -13.4747 47.8482 -15.0646 71.1142c-0.2908 4.261 -0.4356 8.481 -0.4356 12.655c0 26.693 5.9208 51.462 17.3995 72.46c1.34531 2.453 1.6043 3.18 1.77696 4.87c0.028759 0.287 0.042801 0.572 0.042801 0.855c0 4.849 -4.13767 8.959 -8.99629 8.959
c-0.31017 0 -0.62337 -0.017 -0.93857 -0.051z" />
    <glyph glyph-name="brace2" unicode="&#xe102;" 
d="M-11.4526 265.971c-3.4481 -0.42 -5.4184 -1.978 -7.693 -6.078c-19.2179 -34.589 -30.6632 -69.468 -33.4159 -101.812c-0.4933 -5.806 -0.7417 -11.509 -0.7417 -17.137c0 -20.483 3.2904 -39.978 10.0356 -59.9012c2.1586 -6.3746 3.1221 -9.7502 4.1797 -14.6398
c1.4971 -6.9309 2.2381 -13.4741 2.2381 -19.57c0 -17.2349 -5.9234 -30.8936 -17.4285 -39.6267c-2.7019 -2.05001 -3.9623 -4.44047 -3.9623 -7.51187c0 -3.07139 1.2604 -5.46186 3.9623 -7.51186c11.5051 -8.73314 17.4285 -22.3917 17.4285 -39.6267
c0 -6.0959 -0.741 -12.6391 -2.2381 -19.57c-1.0794 -4.991 -1.84 -7.6567 -4.2739 -14.9295c-5.8385 -17.4432 -8.6347 -32.0393 -9.685 -50.5983c-0.088 -1.575 -0.1362 -5.782 -0.1362 -9.717c0 -3.194 0.0318 -6.208 0.1 -7.487
c1.5719 -29.968 8.8882 -58.132 23.1078 -88.889c3.6002 -7.788 10.1776 -20.544 12.0973 -23.463c1.7669 -2.684 4.5612 -3.938 7.354 -3.938c3.84804 0 7.69309 2.381 8.8432 6.683c0.22394 0.835 0.34263 1.593 0.34263 2.345c0 1.658 -0.57578 3.293 -1.87108 5.674
c-11.4113 20.933 -17.1155 44.778 -17.1155 71.559c0 17.98 2.5713 37.284 7.713 57.918c2.1587 8.671 4.61437 16.805 8.54053 28.3014c1.96309 5.7443 3.37564 12.7129 3.84649 18.9644c0.150053 1.9966 0.224683 3.9871 0.224683 5.9698
c0 24.9139 -11.7833 48.5948 -33.7782 67.5769c-0.4419 0.39117 -0.8113 0.717143 -0.8113 0.738874c0 0.021732 0.3694 0.347705 0.8113 0.738872c21.9949 18.9754 33.7782 42.662 33.7782 67.5768c0 1.9828 -0.0746301 3.9733 -0.224683 5.9699
c-0.47085 6.2515 -1.8834 13.2201 -3.84649 18.9644c-3.9334 11.5176 -6.32383 19.4276 -8.49703 28.1206c-5.2026 20.799 -7.803 40.284 -7.803 58.428c0 26.9 5.7155 50.853 17.1403 71.773c1.37633 2.528 1.64435 3.238 1.81096 4.897
c0.0317 0.304 0.04716 0.606 0.04716 0.906c0 4.885 -4.12411 8.967 -9.00994 8.967c-0.3531 0 -0.7102 -0.021 -1.0699 -0.065z" />
    <glyph glyph-name="brace3" unicode="&#xe103;" 
d="M-11.7692 267.727c-2.4799 -0.343 -4.8358 -1.801 -6.1778 -3.829c-1.9621 -2.961 -8.8402 -16.316 -12.6767 -24.617c-15.563 -33.669 -23.377 -66.607 -23.377 -98.08c0 -19.976 3.1479 -39.362 9.4603 -57.9713c2.9322 -8.6651 4.0554 -12.6184 5.2735 -18.7087
c1.2569 -6.2637 1.8823 -12.2832 1.8823 -17.935c0 -8.0242 -1.2606 -15.3072 -3.7641 -21.4955c-3.078 -7.5855 -7.5929 -13.53 -13.727 -18.0376c-2.4909 -1.8344 -3.7363 -4.586 -3.7363 -7.3376c0 -2.75159 1.2454 -5.50319 3.7363 -7.33759
c6.2508 -4.60242 10.948 -10.8532 13.9312 -18.5482c2.3719 -6.139 3.565 -13.2241 3.565 -21.0023c0 -5.6402 -0.6274 -11.6449 -1.8874 -17.9176c-1.2108 -6.0393 -2.3851 -10.1967 -5.2005 -18.4898c-4.9598 -14.5731 -8.0597 -30.3718 -9.0954 -46.3528
c-0.2547 -3.95 -0.382 -7.922 -0.382 -11.916c0 -37.064 10.9675 -75.954 32.8541 -116.455c3.5594 -6.579 4.1575 -7.359 6.5718 -8.563c1.306 -0.653 2.6606 -0.951 3.9811 -0.951c4.75855 0 9.0735 3.871 9.0735 8.951c0 0.312 -0.01628 0.629 -0.04975 0.95
c-0.17505 1.736 -0.37198 2.261 -1.94016 5.12c-8.93489 16.36 -14.3689 34.915 -16.1923 55.324c-0.4527 5.076 -0.6785 10.282 -0.6785 15.609c0 25.913 5.3432 54.7 15.9007 85.5196c2.30485 6.7103 3.18741 10.3791 4.20125 17.3958l0.189639 1.3128l0.0218815 7.9139
c0.00562457 1.759 0.0115202 3.1565 0.0115202 4.3025c0 4.7987 -0.103363 5.1897 -0.762785 9.264c-3.21657 19.934 -14.8429 39.2189 -33.1213 54.9444c-0.5689 0.488683 -1.0357 0.904431 -1.0357 0.926312c0 0.021882 0.4668 0.43763 1.0357 0.926317
c18.2784 15.7255 29.9047 35.0104 33.1213 54.9444c0.659422 4.0743 0.762785 4.4653 0.762785 9.264c0 1.146 -0.00589563 2.5435 -0.0115202 4.3026l-0.0218815 7.9138l-0.189639 1.3129c-1.01384 7.0166 -1.90369 10.6854 -4.20125 17.3957
c-0.98466 2.8665 -1.94016 5.777 -3.1874 9.701c-7.17711 22.538 -11.4513 45.543 -12.5891 67.65c-0.0903 1.797 -0.1334 4.466 -0.1334 7.334c0 4.083 0.0873 8.569 0.2501 11.521c1.2545 22.37 6.8999 43.011 16.6299 60.83c1.05031 1.911 1.23995 2.305 1.45877 2.903
c0.36918 1.036 0.54087 2.074 0.54087 3.084c0 4.845 -3.95519 9.02 -9.01483 9.02c-0.426 0 -0.8598 -0.03 -1.2998 -0.091z" />
    <glyph glyph-name="brace4" unicode="&#xe104;" 
d="M-11.6038 269.565c-3.9364 -0.727 -5.3906 -1.902 -7.8802 -6.382c-18.9039 -34.062 -30.346 -67.529 -33.9006 -99.146c-0.8231 -7.316 -1.2329 -14.61 -1.2329 -21.851c0 -20.67 3.3402 -40.905 9.9431 -59.9626c4.5703 -13.1962 6.8328 -25.3022 6.8328 -35.9884
c0 -17.0636 -5.7688 -30.5069 -17.122 -38.988c-2.6953 -2.01597 -4.0429 -4.77553 -4.0429 -7.53509c0 -2.75956 1.3476 -5.51913 4.0429 -7.5351c11.3503 -8.47885 17.1218 -21.9562 17.1218 -39.0282c0 -10.6986 -2.2666 -22.8088 -6.8473 -35.985
c-6.4094 -18.4377 -9.9194 -39.7167 -9.9194 -59.5697c0 -2.645 0.0623 -5.265 0.1884 -7.85c1.601 -32.909 10.3846 -64.29 27.7976 -99.329c3.0478 -6.125 7.4469 -14.365 8.6 -16.098c1.7983 -2.702 4.5208 -3.908 7.2361 -3.908c4.61426 0 9.20741 3.483 9.20741 9.026
c0 2.027 -0.28642 2.96 -1.74791 5.589c-11.3349 20.467 -17.0037 44.379 -17.0037 71.251c0 26.162 5.3732 55.13 16.1224 86.4575c2.1959 6.4114 3.10658 10.0101 3.98788 15.7826l0.220324 1.4615v10.0614v10.0542l-0.264389 1.7405
c-1.37335 9.1288 -4.29632 17.9271 -8.71016 26.2627c-5.94145 11.1925 -14.2918 21.2686 -26.0423 31.4109l-0.2423 0.205636l0.279 0.242357c18.6689 16.1204 29.3472 32.7402 33.8345 52.6722c0.264392 1.1824 0.587535 2.9964 0.881301 4.9647l0.264389 1.7405v10.0542
v10.0614l-0.220324 1.4615c-0.873956 5.7138 -1.79932 9.4079 -3.91443 15.5623c-10.8317 31.5389 -16.248 60.7119 -16.248 87.0409c0 26.441 5.4622 50.013 16.3876 70.234c1.41742 2.622 1.76994 3.32 1.96089 3.892c0.33162 0.98 0.4885 1.97 0.4885 2.939
c0 4.14 -2.86153 7.903 -7.1937 8.849c-0.40025 0.089 -1.61257 0.165 -2.34707 0.165c-0.2359 0 -0.4225 -0.008 -0.5172 -0.026z" />
    <glyph glyph-name="brace5" unicode="&#xe105;" 
d="M-12.1718 271.268c-2.4625 -0.414 -4.6588 -1.856 -6.049 -3.986c-0.599 -0.917 -3.409 -6.034 -5.5239 -10.071c-20.9728 -40.014 -31.4612 -78.276 -31.4612 -114.721c0 -20.455 3.304 -40.337 9.9128 -59.6339c2.9875 -8.7185 4.5552 -14.6787 5.7975 -22.0735
c0.8506 -5.0489 1.2712 -9.8789 1.2712 -14.4578c0 -16.9957 -5.7949 -30.5314 -16.9038 -38.9548c-2.9062 -2.20365 -4.1781 -4.53302 -4.1781 -7.66841c0 -3.13539 1.2719 -5.46476 4.1781 -7.66841c11.1089 -8.42344 16.9038 -21.9591 16.9038 -38.9548
c0 -4.5789 -0.4206 -9.4089 -1.2712 -14.4578c-1.2497 -7.4613 -2.7805 -13.2663 -5.8715 -22.2953c-6.5236 -19.0852 -9.7832 -38.8122 -9.7832 -59.1112c0 -29.748 7.0001 -60.723 20.9863 -92.704c5.3021 -12.12 14.6269 -30.437 16.7197 -32.833
c1.8531 -2.125 4.2781 -3.074 6.6707 -3.074c4.63419 0 9.14674 3.56 9.14674 9.027c0 1.996 -0.31797 2.936 -2.02617 6.064c-11.1358 20.333 -16.7385 44.116 -16.7385 70.788c0 11.692 1.0766 23.939 3.2356 36.695c2.9061 17.193 7.0916 33.144 13.8282 52.7175
c1.29409 3.764 2.50684 8.615 3.11321 12.3937l0.214449 1.3681v11.7577v11.7577l-0.258818 1.5529c-3.33505 20.3209 -15.1594 39.7397 -34.0309 55.8529c-0.6951 0.59898 -1.2719 1.10183 -1.2719 1.12401c0 0.022185 0.2219 0.221844 0.4881 0.443688
c19.012 15.8101 31.4501 36.0053 34.8147 56.5333l0.258818 1.5529v11.7577v11.7577l-0.214449 1.3681c-0.598979 3.7713 -1.81912 8.6223 -3.11321 12.3937c-5.17636 15.0554 -8.25994 25.8594 -11.2031 39.1484c-3.9441 17.839 -5.9118 34.741 -5.9118 50.607
c0 26.792 5.6106 50.63 16.7896 71.037c1.7082 3.128 2.02617 4.067 2.02617 6.064c0 5.069 -4.12861 9.032 -9.01704 9.032c-0.5025 0 -1.013 -0.042 -1.5279 -0.129z" />
    <glyph glyph-name="brace6" unicode="&#xe106;" 
d="M-12.2856 273.033c-3.2984 -0.618 -4.9812 -2.04 -7.2447 -6.106c-21.3322 -38.338 -33.3869 -75.478 -35.7547 -110.197c-0.3017 -4.429 -0.4518 -8.853 -0.4518 -13.259c0 -20.277 3.1784 -40.188 9.3868 -58.5559c3.3804 -9.9774 4.4674 -13.8418 5.8077 -20.5876
c1.288 -6.4734 1.9274 -12.5637 1.9274 -18.237c0 -17.0878 -5.801 -30.3922 -17.1541 -38.9839c-2.5613 -1.9359 -3.7526 -4.16219 -3.8494 -7.18518c-0.0041 -0.126819 -0.0061 -0.252298 -0.0061 -0.376481c0 -3.06929 1.245 -5.34713 4.0789 -7.50116
c7.2075 -5.48755 12.0399 -12.7471 14.7799 -22.2034c1.4241 -4.923 2.1376 -10.5093 2.1376 -16.5676c0 -5.7252 -0.6372 -11.8719 -1.9142 -18.2787c-1.3403 -6.731 -2.4199 -10.5879 -5.7705 -20.4759c-6.2002 -18.3442 -9.3692 -38.2542 -9.3692 -58.4172
c0 -6.762 0.3565 -13.552 1.0746 -20.322c3.4697 -32.717 15.2787 -67.25 35.2632 -103.124c2.3827 -4.274 4.6983 -5.845 8.6223 -5.845c5.1599 0 8.97214 3.812 8.97214 8.972c0 2.264 -0.1787 2.792 -2.04015 6.18c-9.31469 16.924 -15.0033 37.542 -16.3435 59.269
c-0.2606 4.117 -0.3053 5.8 -0.3053 11.243c0.0075 27.14 5.5173 56.387 16.8052 89.2002c1.63807 4.7653 2.74004 8.8605 3.40272 12.6579l0.230819 1.2955v13.1195c0 12.8663 0 13.1344 -0.148916 13.9981c-3.48462 20.2376 -15.383 39.5222 -34.4219 55.7615
c-0.7148 0.617996 -1.3105 1.13176 -1.3105 1.15409c0 0.022337 0.5957 0.543542 1.3105 1.1541c19.0389 16.2393 30.9373 35.5238 34.4219 55.7615c0.148916 0.8637 0.148916 1.1318 0.148916 13.9832v13.1046l-0.19359 1.1317
c-0.632892 3.7378 -1.77954 8.034 -3.43995 12.8515c-11.247 32.6546 -16.8704 62.6146 -16.8704 89.5056c0 26.765 5.5713 50.489 16.714 70.802c1.8689 3.403 2.04015 3.917 2.04015 6.18c0 5.089 -4.08413 9.055 -8.88094 9.055c-0.5441 0 -1.0974 -0.051 -1.6549 -0.157
z" />
    <glyph glyph-name="brace7" unicode="&#xe107;" 
d="M-11.6955 274.985c-2.0767 -0.21 -3.981 -1.117 -5.4804 -2.609c-0.8997 -0.899 -1.222 -1.394 -2.9314 -4.506c-24.2303 -43.957 -36.1703 -84.773 -36.1703 -123.831c0 -6.26 0.3068 -12.475 0.9189 -18.651c1.3495 -13.615 4.3633 -27.6946 8.6292 -40.2598
c1.4469 -4.2584 2.1291 -6.3576 2.7289 -8.3593c3.3539 -11.1342 5.0147 -21.3851 5.0147 -30.5683c0 -17.0717 -5.7394 -30.4534 -17.0101 -38.96c-2.7139 -2.05046 -4.0709 -4.79628 -4.0709 -7.5421c0 -2.74582 1.357 -5.49163 4.0709 -7.5421
c11.2707 -8.50664 17.0101 -21.8882 17.0101 -38.9599c0 -9.1832 -1.6608 -19.4341 -5.0147 -30.5683c-0.5998 -2.0018 -1.282 -4.101 -2.7289 -8.3593c-6.2226 -18.3379 -9.4989 -38.5499 -9.4989 -58.6279c0 -37.718 11.3282 -77.527 34.0969 -119.804
c3.3437 -6.207 4.0335 -7.354 5.0681 -8.344c1.8125 -1.738 4.0226 -2.525 6.1933 -2.525c4.37465 0 8.58976 3.197 9.07079 8.253c0.0285 0.3 0.04313 0.592 0.04313 0.88c0 1.605 -0.455 3.072 -1.49757 4.96c-11.5526 20.91 -17.3115 44.7 -17.3115 71.704
c0 15.405 1.8741 31.855 5.6159 49.412c2.9539 13.847 6.17018 25.213 11.853 41.9466c0.48731 1.4469 1.0346 3.1338 1.20704 3.7485c0.57727 2.0992 1.27451 4.9406 1.58189 6.4625l0.307382 1.5144v14.3195v14.3195l-0.299885 1.492
c-4.04095 20.0997 -15.4965 38.1828 -34.5617 54.549c-0.7197 0.614767 -1.312 1.14706 -1.312 1.16955c0 0.022492 0.5923 0.554787 1.327 1.18454c19.1176 16.4487 30.5058 34.4268 34.5467 54.534l0.299885 1.492v14.3194v14.3195l-0.307382 1.5145
c-0.299885 1.5069 -0.989618 4.3333 -1.58189 6.4625c-0.17244 0.6222 -0.73472 2.3541 -1.24453 3.861c-5.87024 17.273 -9.1465 28.984 -12.1978 43.641c-3.5164 16.863 -5.2746 32.907 -5.2746 47.957c0 14.79 1.6982 28.621 5.0947 41.326
c2.9688 11.103 6.84483 20.797 12.2128 30.551c0.74221 1.349 1.06459 2.106 1.28201 3.006c0.17034 0.717 0.25123 1.428 0.25123 2.125c0 4.892 -3.98996 9.04 -9.00441 9.04c-0.305 0 -0.6137 -0.015 -0.9256 -0.047z" />
    <glyph glyph-name="brace8" unicode="&#xe108;" 
d="M-11.5874 276.823c-1.0568 -0.143 -1.4494 -0.226 -2.0759 -0.423c-2.7251 -0.86 -3.9707 -2.098 -6.2882 -6.288c-23.0238 -41.609 -34.6791 -78.786 -36.6795 -117.044c-0.068 -1.257 -0.1019 -4.78 -0.1019 -8.299c0 -3.518 0.0339 -7.032 0.1019 -8.27
c0.9964 -18.797 4.2424 -36.106 9.7228 -51.785c5.0561 -14.4801 7.5714 -27.4768 7.5714 -38.7737c0 -16.9542 -5.6652 -30.0801 -16.9092 -38.6467c-2.8761 -2.18915 -4.099 -4.46134 -4.099 -7.61673c0 -3.1554 1.2229 -5.42758 4.099 -7.61673
c11.1976 -8.53371 16.9053 -21.7176 16.9053 -38.7536c0 -5.7495 -0.6501 -11.9378 -1.9587 -18.5342c-1.3664 -6.9146 -2.5968 -11.2854 -5.873 -20.9252c-2.6949 -7.9338 -5.0426 -17.0601 -6.5674 -25.4771c-1.9945 -11.04 -2.9959 -22.186 -2.9959 -33.479
c0 -37.818 11.2295 -77.28 33.9987 -119.912c3.7065 -6.945 4.5746 -8.395 5.6314 -9.376c1.835 -1.718 4.0335 -2.489 6.1824 -2.489c4.64926 0 9.0662 3.608 9.0662 9.034c0 1.955 -0.30195 2.914 -1.75887 5.586c-11.3741 20.894 -17.0603 44.684 -17.0603 71.566
c0 26.962 5.7201 57.034 17.1585 90.416c1.63054 4.748 2.46846 7.6693 3.24598 11.3531l0.271756 1.2531v15.2184v15.2108l-0.226464 1.087c-4.18203 20.0949 -15.626 38.061 -34.6867 54.4268c-0.8681 0.754883 -1.5852 1.38898 -1.5852 1.41163
c0 0.030195 0.6492 0.603903 1.4343 1.27574c19.1739 16.4412 30.6481 34.4149 34.8376 54.5626l0.226464 1.0871v15.2108v15.2183l-0.271756 1.2531c-0.777524 3.6687 -1.61544 6.6052 -3.23088 11.3232c-11.4827 33.5373 -17.2236 63.7853 -17.2236 90.8783
c0 27.018 5.7088 50.898 17.1254 71.775c1.22846 2.246 1.7948 3.903 1.7948 5.567c0 0.893 -0.16284 1.787 -0.47376 2.775c-1.12525 3.563 -4.85172 6.283 -8.39187 6.283c-0.3073 0 -0.6132 -0.021 -0.9158 -0.063z" />
    <glyph glyph-name="brace9" unicode="&#xe109;" 
d="M-12.2753 278.59c-3.3596 -0.563 -5.1685 -2.007 -7.2816 -5.8c-20.1497 -36.127 -32.235 -70.475 -36.233 -102.976c-0.9989 -8.117 -1.4965 -16.208 -1.4965 -24.235c0 -20.924 3.3813 -41.415 10.0778 -60.8176c5.0197 -14.5407 7.5165 -27.5715 7.5165 -38.876
c0 -17.0418 -5.6744 -30.1605 -16.9339 -38.6142c-2.7971 -2.09782 -4.0664 -4.46928 -4.0664 -7.60081c0 -3.13153 1.2693 -5.50298 4.0664 -7.6008c11.2414 -8.44036 16.9384 -21.7863 16.9384 -38.8927c0 -10.8844 -2.3064 -23.2911 -6.9585 -36.9254
c-6.4911 -19.0245 -9.4631 -34.5005 -10.4512 -54.3835c-0.0646 -1.292 -0.0969 -4.521 -0.0969 -7.745c0 -3.225 0.0323 -6.446 0.0969 -7.723c1.695 -33.709 10.2839 -64.66 28.047 -101.098c3.3444 -6.856 9.197 -17.908 10.6411 -20.097
c1.7568 -2.653 4.5678 -3.91 7.3773 -3.91c3.64499 0 7.28753 2.115 8.62244 6.038c0.35356 1.042 0.53974 1.976 0.53974 2.916c0 1.688 -0.59973 3.398 -1.90788 5.795c-8.4065 15.384 -13.7119 32.493 -15.8629 51.108c-0.7522 6.522 -1.1292 13.233 -1.1292 20.169
c0 9.045 0.6411 18.472 1.9273 28.362c2.5615 19.77 7.7148 40.771 15.7489 64.196c1.28454 3.7476 2.15863 6.8031 2.86551 10.0562l0.228024 1.0642v15.9541v15.9464l-0.266028 1.2314c-4.46927 20.4309 -16.5014 38.7489 -36.2939 55.2578l-0.342 0.28123l0.342 0.28883
c19.7925 16.5013 31.8246 34.8193 36.2939 55.2503l0.266028 1.2313v15.9465v15.9541l-0.228024 1.0641c-0.706875 3.2531 -1.58097 6.3086 -2.86551 10.0558c-11.8647 34.5827 -17.7412 65.2597 -17.7412 92.7537c0 6.183 0.2971 12.205 0.8902 18.074
c1.9762 19.572 7.4032 37.578 16.1441 53.585c1.36814 2.509 1.61897 3.147 1.83179 4.751c0.04874 0.369 0.07235 0.735 0.07235 1.098c0 4.834 -4.19539 8.982 -8.99794 8.982c-0.4559 0 -0.9173 -0.038 -1.3811 -0.115z" />
    <glyph glyph-name="brace10" unicode="&#xe10a;" 
d="M-12.4823 280.431c-3.0919 -0.52 -5.0511 -2.074 -7.0103 -5.579c-23.9085 -42.72 -36.1459 -81.438 -38.0975 -120.538c-0.1393 -2.774 -0.2085 -5.571 -0.2085 -8.384c0 -20.067 3.5246 -40.982 10.3107 -60.9915c0.6811 -1.9975 1.523 -4.5766 1.8827 -5.7323
c3.7618 -12.1397 5.6289 -23.1929 5.6289 -32.9887c0 -17.148 -5.7216 -30.4426 -17.0169 -38.9664c-2.7321 -2.06253 -4.0982 -4.81576 -4.0982 -7.56898c0 -2.75323 1.3661 -5.50646 4.0982 -7.56899c11.2774 -8.50776 17.0102 -21.7232 17.0102 -38.8959
c0 -5.9371 -0.6852 -12.3472 -2.0635 -19.1993c-1.3393 -6.6736 -2.4873 -10.7681 -5.5562 -19.9366c-5.8776 -17.5414 -8.8088 -32.6864 -9.8267 -50.7784c-0.1488 -2.61 -0.2276 -6.92 -0.2276 -10.903c0 -2.98 0.0441 -5.776 0.1358 -7.541
c1.7143 -32.534 10.1251 -63.277 26.8779 -98.229c3.8113 -7.952 10.7451 -21.176 12.268 -23.373c1.8202 -2.638 4.5214 -3.816 7.21 -3.816c4.62551 0 9.21374 3.486 9.21374 9.013c0 2.028 -0.29847 2.87 -2.29595 6.543
c-10.9962 20.215 -16.6154 44.325 -16.6154 70.958c0 6.51 0.3357 13.171 1.0106 19.962c2.3112 23.327 7.5843 46.041 17.2043 74.1209c0.8342 2.449 1.11737 3.4056 1.98217 6.7348l0.665826 2.5638v17.0283v17.0283l-0.589294 2.2959
c-5.16589 20.1968 -16.5768 37.2021 -35.7479 53.2661c-0.4516 0.375 -0.8189 0.704087 -0.8189 0.727046c0 0.02296 0.3673 0.352046 0.8189 0.727051c19.1023 15.9722 30.582 33.077 35.7479 53.2661l0.589294 2.2959v17.0283v17.0283l-0.665826 2.5638
c-0.857154 3.2985 -1.14797 4.2934 -1.9439 6.62c-6.94908 20.2734 -11.1201 35.7864 -14.3038 53.1974c-2.6549 14.499 -3.9793 28.335 -3.9793 41.453c0 26.889 5.5654 50.758 16.6453 71.117c1.73727 3.184 1.95156 3.697 2.18115 5.113
c0.08005 0.492 0.11859 0.98 0.11859 1.459c0 4.935 -4.08373 9.008 -9.01663 9.008c-0.4984 0 -1.0055 -0.042 -1.5179 -0.128z" />
    <glyph glyph-name="brace11" unicode="&#xe10b;" 
d="M-12.7147 282.295c-3.0515 -0.555 -4.9395 -2.073 -6.8737 -5.541c-22.8094 -40.81 -35.5395 -79.224 -38.1287 -115.01c-0.3543 -4.915 -0.5423 -10.584 -0.5423 -15.613c0 -2.627 0.0513 -5.079 0.1571 -7.158c0.9863 -19.496 3.8837 -34.807 10.0947 -53.363
c3.4137 -10.1949 4.6928 -14.9803 6.1184 -22.848c1.0461 -5.7741 1.5643 -11.2502 1.5643 -16.3927c0 -17.0938 -5.7249 -30.5024 -16.8142 -38.9201c-3.0284 -2.29636 -4.2768 -4.55418 -4.2768 -7.75983c0 -3.20564 1.2484 -5.46347 4.2768 -7.75982
c11.0893 -8.41766 16.8142 -21.8263 16.8142 -38.9201c0 -5.1426 -0.5182 -10.6187 -1.5643 -16.3928c-1.4256 -7.8445 -2.7124 -12.6838 -6.0799 -22.7323c-6.9389 -20.7294 -10.2417 -40.1754 -10.2417 -60.9344c0 -4.83 0.1788 -9.732 0.5323 -14.737
c2.5198 -35.632 15.2807 -74.154 38.0901 -114.972c1.5181 -2.72 2.5045 -3.768 4.4695 -4.732c1.3241 -0.652 2.695 -0.952 4.0284 -0.952c4.74235 0 9.00991 3.797 9.00991 9.036c0 2.034 -0.30823 2.944 -2.07288 6.165c-11.2158 20.434 -16.8464 44.369 -16.8464 71.415
c0 12.923 1.2857 26.557 3.862 40.859c3.1748 17.631 7.4439 33.544 14.6258 54.519c0.75518 2.2197 1.07883 3.3217 1.86483 6.4195l0.647294 2.566l-0.0154118 17.3922l-0.0231176 17.3922l-0.524 2.042c-5.18606 20.1971 -16.5291 37.0807 -35.8247 53.3247
c-0.6319 0.523998 -1.1404 0.978645 -1.1404 1.00176c0 0.023117 0.5085 0.477764 1.1404 1.00176c19.2956 16.244 30.6386 33.1276 35.8247 53.3247l0.524 2.0421l0.0231176 17.3922l0.0154118 17.3922l-0.647294 2.566c-0.778296 3.0747 -1.10965 4.2151 -1.8263 6.3034
c-10.5108 30.6233 -16.0899 55.5053 -18.0163 80.4493c-0.4023 5.182 -0.6024 10.29 -0.6024 15.312c0 26.916 5.7493 51.379 16.9388 71.765c1.76465 3.221 2.07288 4.13 2.07288 6.164c0 5.08 -4.13748 9.041 -9.00151 9.041c-0.5369 0 -1.0826 -0.048 -1.6326 -0.148z
" />
    <glyph glyph-name="brace12" unicode="&#xe10c;" 
d="M-12.6859 284.215c-3.2122 -0.581 -5.0123 -2.048 -7.1227 -5.819c-26.0062 -46.497 -38.9337 -89.788 -38.9337 -130.545c0 -9.244 0.6651 -18.358 1.9934 -27.349c1.8311 -12.407 4.0424 -21.5546 8.2555 -34.1396c3.6157 -10.7927 5.0899 -16.4024 6.5097 -24.751
c0.8756 -5.1382 1.3186 -10.4668 1.3186 -15.4332c0 -4.0556 -0.2954 -7.8697 -0.8918 -11.1412c-2.1803 -11.9954 -7.4952 -21.1432 -16.0921 -27.6995c-2.9639 -2.25785 -4.0734 -4.33725 -4.0734 -7.64256s1.1095 -5.38471 4.0734 -7.64256
c9.947 -7.58822 15.4559 -18.4973 16.8137 -33.3247c0.0934 -1.0405 0.1427 -3.5993 0.1427 -6.0486c0 -2.025 -0.0337 -3.9751 -0.1039 -4.9303c-0.8458 -11.1806 -2.8631 -20.3051 -7.6581 -34.6049c-6.1529 -18.3499 -9.0469 -33.6039 -10.0634 -53.1099
c-0.0698 -1.288 -0.1047 -4.789 -0.1047 -8.298c0 -3.509 0.0349 -7.026 0.1047 -8.345c1.7458 -34.186 10.6376 -65.718 29.2435 -103.776c2.9251 -5.966 9.3883 -18.14 10.622 -19.979c1.7669 -2.647 4.5952 -3.919 7.4205 -3.919c3.42749 0 6.85059 1.872 8.36895 5.432
c0.49296 1.158 0.74426 2.265 0.74426 3.403c0 1.783 -0.61593 3.644 -1.88483 5.908c-11.1202 19.857 -17.1769 45.218 -17.1769 71.669c0 1.621 0.0227 3.245 0.0684 4.873c0.7914 28.188 6.502 56.267 18.6836 91.865c0.7371 2.1497 1.2104 3.7713 1.96301 6.743
l0.465537 1.8544v17.7602v17.7603l-0.581921 2.2888c-5.0278 19.8241 -16.7128 37.0956 -36.1412 53.4049c-0.6285 0.527606 -1.1406 0.985384 -1.1406 1.01642s0.5121 0.488813 1.1484 1.01642c19.4206 16.3093 31.1056 33.5807 36.1334 53.4048l0.581921 2.2889v17.7602
v17.7603l-0.465537 1.8543c-0.752613 2.9717 -1.22591 4.5933 -1.96301 6.7421c-12.3522 36.103 -18.1481 64.865 -18.7533 93.185c-0.0278 1.289 -0.0416 2.574 -0.0416 3.855c0 26.656 5.9845 51.807 17.1113 71.795c0.96211 1.73 1.3035 2.421 1.51299 3.073
c0.30617 0.967 0.45205 1.938 0.45205 2.884c0 3.995 -2.59862 7.567 -6.71352 8.715c-0.54217 0.154 -1.75798 0.254 -2.72948 0.254c-0.4466 0 -0.8416 -0.021 -1.0957 -0.068z" />
    <glyph glyph-name="brace13" unicode="&#xe10d;" 
d="M-12.2654 286.167c-2.1093 -0.243 -3.8203 -1.071 -5.3593 -2.602c-1.1172 -1.125 -2.1015 -2.789 -6.3749 -10.828c-23.5406 -44.248 -35.2341 -85.256 -35.2341 -124.151c0 -21.049 3.4248 -41.48 10.2502 -61.4706c4.6405 -13.5856 6.8983 -23.4839 7.7655 -34.1009
c0.1861 -2.2612 0.2787 -4.4676 0.2787 -6.6165c0 -17.154 -5.9003 -30.6471 -17.2237 -39.1796c-2.6169 -1.97145 -3.9989 -4.52883 -3.9989 -7.37795c0 -0.323477 0.0178 -0.650715 0.0536 -0.981284c0.2969 -2.82807 1.4766 -4.82804 3.9453 -6.68738
c11.3269 -8.54111 17.218 -21.9785 17.218 -39.1865c0 -1.0817 -0.0232 -2.1782 -0.0699 -3.2893c-0.4453 -10.5623 -2.8281 -22.1949 -7.1874 -35.1166c-2.7421 -8.117 -3.4921 -10.5857 -4.9452 -16.2494c-3.9947 -15.59 -6.003 -31.376 -6.003 -47.483
c0 -39.525 12.0914 -80.99 36.5962 -126.264c3.4531 -6.383 3.8671 -7.063 4.9296 -8.133c1.843 -1.84 4.1139 -2.676 6.3407 -2.676c4.32409 0 8.48211 3.151 9.01841 8.215c0.04118 0.376 0.06355 0.729 0.06355 1.07c0 1.604 -0.4924 2.973 -1.84476 5.446
c-11.5113 21.126 -17.2624 45.113 -17.2624 72.406c0 24.664 4.6965 52.028 14.0828 82.419c1.48435 4.797 2.06247 6.562 4.93742 15c0.6953 2.0622 1.10935 3.4762 1.78122 6.1402l0.507804 2.0078v18.1872v18.1872l-0.554678 2.1484
c-5.07803 19.8824 -16.8669 37.2102 -36.4993 53.6709c-0.6328 0.531245 -1.1485 0.992174 -1.1485 1.02342c0 0.03125 0.6407 0.601552 1.4219 1.25779c19.5387 16.4841 31.1635 33.6322 36.2259 53.4366l0.554678 2.1484v18.1871v18.1872l-0.507804 2.0078
c-0.671866 2.6718 -1.08592 4.0781 -1.78122 6.141c-6.71082 19.694 -10.2342 32.241 -13.5779 48.319c-3.6655 17.617 -5.5023 34.098 -5.5023 49.531c0 27.327 5.7592 51.365 17.3224 72.6c1.0781 1.968 1.30466 2.484 1.54684 3.414
c0.19475 0.766 0.28694 1.527 0.28694 2.271c0 4.888 -3.98366 9.03 -9.00778 9.03c-0.3436 0 -0.6922 -0.02 -1.0446 -0.059z" />
    <glyph glyph-name="brace14" unicode="&#xe10e;" 
d="M-12.7589 288.016c-3.0914 -0.479 -5.0736 -2.037 -7.048 -5.537c-18.9181 -33.604 -31.8421 -67.901 -36.8214 -97.737c-2.0413 -12.217 -3.0718 -23.934 -3.0718 -35.409c0 -20.983 3.4457 -41.156 10.4581 -62.0918c3.6341 -10.8631 5.1523 -16.6369 6.5997 -25.093
c0.9312 -5.43 1.3928 -10.5903 1.3928 -15.4535c0 -17.2369 -5.7989 -30.7406 -17.0386 -39.2869c-2.5643 -1.9508 -3.7364 -3.76002 -4.1297 -6.35584c-0.078 -0.517719 -0.1172 -1.02163 -0.1172 -1.51255c0 -2.92529 1.391 -5.38933 4.2469 -7.56497
c11.2397 -8.55243 17.0386 -22.0527 17.0386 -39.2878c0 -4.8626 -0.4616 -10.0226 -1.3928 -15.4526c-1.4474 -8.4876 -2.9498 -14.1905 -6.639 -25.211c-6.8977 -20.618 -10.3721 -41.236 -10.3721 -62.338c0 -34.56 9.319 -70.421 28.181 -109.718
c5.2546 -10.95 12.1138 -23.716 13.5769 -25.258c1.8722 -1.982 4.151 -2.837 6.3835 -2.837c4.73115 0 9.25371 3.841 9.25371 8.944c0 0.947 -0.15576 1.937 -0.49486 2.955c-0.24385 0.723 -0.44837 1.132 -1.80921 3.634
c-11.2353 20.625 -16.8521 44.545 -16.8521 71.762c0 28.711 6.25 61.091 18.7479 97.147c0.98327 2.832 1.34511 4.0278 2.11599 6.9933l0.55063 2.1318v18.627v18.6191l-0.479834 1.8564c-5.15232 20.0351 -17.2269 37.7575 -36.7428 53.9539
c-0.763 0.637153 -1.3923 1.17205 -1.3923 1.19565c0 0.023599 0.6293 0.558496 1.3923 1.19565c19.5159 16.1963 31.5905 33.9187 36.7428 53.9538l0.479834 1.8564v18.6191v18.627l-0.55063 2.1318c-0.77088 2.9655 -1.13272 4.1611 -2.11599 6.9931
c-12.5557 36.204 -18.8325 68.447 -18.8325 97.137c0 27.768 5.8796 52.208 17.6368 73.692c0.84167 1.542 1.17992 2.36 1.38444 3.359c0.12905 0.626 0.19066 1.245 0.19066 1.853c0 4.923 -4.05175 9.019 -9.03923 9.019c-0.47 0 -0.9484 -0.036 -1.4325 -0.112z" />
    <glyph glyph-name="brace15" unicode="&#xe10f;" 
d="M-12.9338 289.917c-2.8909 -0.491 -4.9739 -2.068 -6.6926 -5.069c-17.8206 -31.23 -31.0792 -65.43 -36.6154 -94.442c-2.0355 -10.7 -3.1602 -20.204 -3.7305 -31.609c-0.0673 -1.371 -0.101 -4.814 -0.101 -8.247c0 -3.434 0.0337 -6.857 0.101 -8.188
c1.0376 -20.244 4.0631 -36.1 10.5102 -55.125c4.6175 -13.6228 6.8431 -23.7133 7.7381 -35.0472c0.0717 -0.9356 0.1061 -2.9793 0.1061 -5.1053c0 -2.5713 -0.0503 -5.2631 -0.1457 -6.2603c-1.4652 -15.1118 -7.0253 -26.0022 -17.2028 -33.6769
c-2.6058 -1.95631 -3.9205 -4.46703 -3.9205 -7.46882s1.3147 -5.5125 3.9205 -7.46881c10.1775 -7.67474 15.7376 -18.5571 17.2028 -33.6769c0.0954 -0.9972 0.1457 -3.689 0.1457 -6.2603c0 -2.126 -0.0344 -4.1697 -0.1061 -5.1053
c-0.4673 -5.9481 -1.2435 -11.0646 -2.6295 -17.3058c-1.2831 -5.7897 -2.4078 -9.6707 -5.2274 -18.0978c-5.9085 -17.6545 -8.9103 -32.5285 -10.0587 -49.7785c-0.3327 -5.03 -0.3564 -5.972 -0.3564 -12.91c0 -7.374 0.0713 -9.37 0.5623 -15.762
c2.6375 -34.635 14.6921 -71.718 36.4095 -111.992c4.0631 -7.54 4.6096 -8.388 6.1619 -9.544c1.6863 -1.256 3.5718 -1.823 5.4104 -1.823c4.69008 0 9.07582 3.688 9.07582 9.03c0 1.98 -0.32473 2.946 -2.05135 6.099c-11.4171 20.814 -17.1247 45.031 -17.1247 72.583
c0 29.176 6.4007 62.092 19.1998 98.669c0.68114 1.932 1.19596 3.6827 1.8375 6.1618l0.514817 2.0196v18.9612v18.969l-0.483136 1.8613c-5.14025 19.9986 -17.2583 37.6767 -37.2332 54.3092c-0.6653 0.554418 -1.2118 1.03755 -1.2118 1.06132
c0 0.023761 0.5465 0.506897 1.2118 1.06132c19.9749 16.6325 32.0929 34.3106 37.2332 54.3092l0.483136 1.8613v18.9691v18.9611l-0.514817 2.0196c-0.641543 2.4791 -1.15636 4.2299 -1.8375 6.1619c-12.8387 36.708 -19.2591 69.756 -19.2591 99.044
c0 27.663 5.7274 51.971 17.184 72.842c1.44941 2.645 1.7187 3.287 1.93255 4.625c0.08171 0.502 0.12105 0.998 0.12105 1.486c0 4.963 -4.07607 9.027 -9.02747 9.027c-0.5029 0 -1.0149 -0.042 -1.5325 -0.129z" />
    <glyph glyph-name="brace16" unicode="&#xe110;" 
d="M-13.2541 291.78c-3.3573 -0.734 -4.7689 -1.986 -7.257 -6.468c-17.8634 -32.082 -29.8974 -62.936 -35.7189 -91.542c-2.8869 -14.216 -4.3254 -28.383 -4.3254 -42.327c0 -21.762 3.5039 -42.98 10.4739 -62.9956c5.483 -15.7376 8.2181 -29.6561 8.2181 -41.6336
c0 -17.4286 -5.7911 -30.7474 -17.3332 -39.5813c-2.8869 -2.20901 -3.9954 -4.31435 -3.9954 -7.57603c0 -3.26167 1.1085 -5.36701 3.9954 -7.57602c11.5391 -8.83664 17.3337 -22.1986 17.3337 -39.6426c0 -11.9476 -2.7182 -25.81 -8.1707 -41.4447
c-3.0305 -8.6766 -5.6781 -18.7331 -7.3129 -27.7281c-2.1078 -11.626 -3.1698 -23.32 -3.1698 -35.158c0 -40.119 12.1954 -81.905 37.214 -128.365c3.7482 -6.962 4.426 -8.086 5.4707 -9.131c1.7571 -1.746 4.051 -2.592 6.3335 -2.592
c2.90755 0 5.79675 1.372 7.53464 4.004c1.05267 1.587 1.44344 2.919 1.44344 4.968c0.00015 0.042 0.00023 0.084 0.00023 0.125c0 2.139 -0.21593 2.773 -1.89823 5.856c-9.13108 16.651 -14.7772 35.887 -16.6274 56.581c-0.4767 5.334 -0.7157 10.801 -0.7157 16.41
c0 28.917 6.3515 61.581 19.2092 98.905c1.03672 3.023 1.32381 3.956 2.00166 6.5554l0.550258 2.1292v19.3149v19.3149l-0.446587 1.7225c-5.15169 19.9927 -17.2574 37.6568 -37.274 54.3959c-0.8533 0.717732 -1.5551 1.32381 -1.5551 1.35571
c0 0.031899 0.7018 0.63798 1.5551 1.35571c20.0007 16.747 32.1064 34.3871 37.2341 54.2363l0.48646 1.8821v19.3148v19.3149l-0.518359 2.0096c-0.733681 2.8071 -0.925071 3.4211 -2.40838 7.7511c-12.5863 36.726 -18.879 69.35 -18.879 98.244
c0 27.731 5.7962 52.027 17.3877 73.214c1.6823 3.083 1.89823 3.717 1.89823 5.856c0 0.041 -0.00008 0.083 -0.00023 0.125c-0.01414 5.074 -4.11181 9.021 -8.87398 9.021c-0.6115 0 -1.2339 -0.065 -1.8601 -0.201z" />
    <glyph glyph-name="brace17" unicode="&#xe111;" 
d="M-12.5262 293.869c-3.5732 -0.401 -5.4762 -1.927 -7.9252 -6.335c-24.129 -43.416 -37.3297 -83.026 -40.0116 -120.043c-0.3692 -5.121 -0.5652 -10.977 -0.5652 -16.17c0 -2.713 0.0535 -5.245 0.1637 -7.397c0.7307 -14.309 2.4972 -26.482 5.6769 -38.984
c1.6622 -6.5679 2.6097 -9.7155 5.3879 -17.9057c5.0946 -15.009 7.6315 -28.3878 7.6315 -39.9773c0 -17.5455 -5.8145 -30.9899 -17.3714 -39.7809c-2.73 -2.0745 -4.1095 -4.57548 -4.1095 -7.42758c0 -0.327242 0.0182 -0.659106 0.0545 -0.995475
c0.3132 -2.90673 1.4454 -4.80171 4.055 -6.78503c8.5515 -6.50398 13.9715 -15.5614 16.2519 -27.1642c0.7565 -3.849 1.1326 -8.0168 1.1326 -12.468c0 -11.6135 -2.5601 -25.157 -7.6044 -40.0056c-2.2483 -6.6244 -3.1316 -9.4267 -4.1915 -13.3292
c-4.6706 -17.078 -7.024 -34.312 -7.024 -51.91c0 -40.883 12.7012 -83.732 38.5563 -131.165c3.4849 -6.4 3.8542 -6.962 5.3156 -8.062c1.7364 -1.308 3.6765 -1.905 5.5609 -1.905c4.36374 0 8.42875 3.205 8.97272 8.224c0.03585 0.332 0.05458 0.653 0.05458 0.969
c0 1.592 -0.477 3.052 -1.63641 5.15c-11.853 21.539 -17.7833 45.929 -17.7833 73.86c0 29.098 6.4361 62.039 19.3169 99.604c1.18036 3.452 1.47745 4.416 2.13588 6.9534l0.481777 1.8789v19.6084v19.6083l-0.441629 1.7103
c-5.24334 20.2186 -17.9382 38.5422 -38.2451 55.1956c-0.538 0.441627 -0.9796 0.827048 -0.9796 0.851137c0 0.032119 0.3533 0.337244 0.7789 0.690547c20.1945 16.3965 33.2024 35.1295 38.4458 55.3562l0.441629 1.7103v19.6083v19.6083l-0.481777 1.8789
c-0.690543 2.6494 -0.947493 3.4844 -2.56144 8.2064c-12.6204 36.92 -18.929 69.602 -18.929 98.565c0 28.107 5.9413 52.712 17.8209 74.288c0.81902 1.486 1.10809 2.152 1.34094 3.044c0.19411 0.769 0.28674 1.535 0.28674 2.284
c0 4.519 -3.37099 8.434 -8.17177 8.957c-0.4336 0.048 -0.6745 0.072 -0.9154 0.072s-0.4818 -0.024 -0.9154 -0.072z" />
    <glyph glyph-name="brace18" unicode="&#xe112;" 
d="M-12.8145 295.815c-2.5144 -0.315 -4.9479 -1.835 -6.3789 -3.994c-0.8732 -1.301 -5.4654 -9.807 -8.6346 -15.975c-22.7951 -44.402 -33.5983 -83.811 -33.5983 -122.642c0 -0.517 0.002 -1.033 0.0058 -1.549c0.0404 -5.83 0.0727 -6.881 0.3395 -10.899
c1.1804 -17.997 4.5114 -34.603 10.292 -51.3386c0.5741 -1.6654 1.1238 -3.2662 1.2128 -3.5573c0.0889 -0.2911 0.4527 -1.4553 0.8085 -2.5952c4.1693 -13.2134 6.3074 -25.573 6.3074 -36.284c0 -3.0388 -0.1721 -5.9449 -0.5187 -8.7001
c-1.5927 -12.6366 -7.1955 -23.2681 -15.911 -30.1888c-0.7033 -0.55786 -1.5603 -1.23699 -1.8999 -1.51187c-2.1223 -1.69782 -3.1834 -4.30113 -3.1834 -6.90445c0 -2.60332 1.0611 -5.20664 3.1834 -6.90445c0.3396 -0.27489 1.1966 -0.95402 1.8999 -1.51187
c10.8967 -8.6492 16.4044 -22.021 16.4044 -39.2368c0 -10.5919 -2.0848 -22.6387 -6.2821 -35.936c-0.3558 -1.14 -0.7196 -2.3042 -0.8085 -2.5953c-0.089 -0.291 -0.6387 -1.8918 -1.2128 -3.5573c-3.9696 -11.505 -6.6295 -22.346 -8.4648 -34.522
c-1.4493 -9.606 -2.1783 -19.296 -2.1783 -29.106c0 -42.123 13.44 -86.47 41.0017 -135.987c1.4472 -2.595 1.9161 -3.234 3.1127 -4.196c1.7123 -1.381 3.6836 -2.01 5.6153 -2.01c4.35272 0 8.50492 3.191 9.04249 8.147c0.04214 0.387 0.06524 0.749 0.06524 1.1
c0 1.668 -0.52259 3.08 -2.0056 5.772c-11.6163 21.094 -17.4548 45.772 -17.4548 73.706c0 0.587 0.0026 1.176 0.0077 1.766c0.0486 4.923 0.0809 6.144 0.2992 10.146c1.3987 25.459 7.7533 54.985 18.8053 87.333c1.52803 4.479 1.83526 5.465 2.53055 8.1573
l0.412327 1.5846v19.9049v19.9049l-0.493175 1.8756c-5.19855 19.9211 -17.5279 37.7724 -37.7319 54.6212c-0.9864 0.82466 -1.7949 1.51995 -1.7949 1.54421c0 0.024254 0.8085 0.71955 1.803 1.5442c20.1959 16.8488 32.5253 34.7002 37.7238 54.6212l0.493175 1.8757
v19.9048v19.9049l-0.412327 1.5847c-0.695293 2.6918 -1.00252 3.6708 -2.53055 8.1578c-3.33904 9.782 -5.71598 17.463 -8.37592 27.1c-7.1847 26.028 -10.7729 50.188 -10.7729 72.296c0 28.197 5.8362 53.057 17.4914 74.201c1.08337 1.965 1.39867 2.644 1.64122 3.501
c0.24029 0.84 0.35338 1.677 0.35338 2.493c0 4.864 -4.01131 9.027 -9.05713 9.027c-0.3785 0 -0.7628 -0.023 -1.1517 -0.072z" />
    <glyph glyph-name="brace19" unicode="&#xe113;" 
d="M-13.2526 297.724c-3.4923 -0.643 -5.0064 -1.994 -7.7253 -6.919c-27.5669 -49.821 -40.951 -94.061 -40.951 -136.456c0 -12.751 1.2109 -25.336 3.6109 -37.855c1.4815 -7.758 4.0458 -17.4206 6.6019 -24.8854c5.1121 -14.9539 7.4973 -24.9667 8.5718 -36.0214
c0.273 -2.8142 0.4086 -5.5478 0.4086 -8.196c0 -17.651 -6.0258 -31.5061 -17.5849 -40.1418c-2.727 -2.03511 -4.0702 -4.54236 -4.0702 -7.58688c0 -3.04452 1.3432 -5.55177 4.0702 -7.58688c11.5591 -8.64281 17.5849 -22.4927 17.5849 -40.1422
c0 -2.648 -0.1356 -5.3814 -0.4086 -8.1957c-1.0745 -11.0628 -3.4108 -20.872 -8.5718 -36.0214c-5.2669 -15.4663 -8.5882 -32.2363 -9.7034 -49.0463c-0.3664 -5.543 -0.4071 -6.87 -0.4071 -13.228c0.0082 -41.394 12.4549 -83.936 38.7729 -132.485
c3.9888 -7.359 4.5017 -8.116 6.3007 -9.305c1.5905 -1.045 3.3172 -1.518 4.9986 -1.518c4.71234 0 9.06806 3.722 9.06806 9.032c0 2.027 -0.3012 2.881 -2.32002 6.593c-11.4806 21.122 -17.2236 45.443 -17.2236 73.245c0 29.642 6.5286 63.242 19.5925 101.14
c1.16408 3.37 1.57924 4.721 2.22234 7.237l0.415162 1.5869v20.1639v20.172l-0.37446 1.4408c-5.24244 20.2697 -17.624 38.2193 -38.1867 55.3549c-1.0013 0.83032 -1.8153 1.53854 -1.8153 1.56296c0 0.024421 0.814 0.732639 1.8153 1.56296
c20.5546 17.1357 32.9443 35.0852 38.1867 55.3549l0.37446 1.4408v20.172v20.1638l-0.415162 1.5874c-0.643098 2.5156 -1.05826 3.8586 -2.22234 7.2366c-11.9257 34.622 -18.1857 64.44 -19.5207 92.94c-0.0692 1.469 -0.1038 4.957 -0.1038 8.425
c0 3.468 0.0346 6.915 0.1038 8.303c1.2454 25.121 6.9437 46.742 17.3228 65.693c1.5304 2.793 1.78275 3.379 2.01882 4.763c0.08942 0.513 0.13235 1.021 0.13235 1.522c0 4.906 -4.12236 9.039 -9.00186 9.039c-0.5151 0 -1.0385 -0.046 -1.5665 -0.142z" />
    <glyph glyph-name="brace20" unicode="&#xe114;" 
d="M-13.4749 299.681c-3.0654 -0.582 -4.8768 -2.073 -6.9177 -5.696c-17.7698 -31.605 -30.3676 -63.047 -36.6953 -91.636c-3.5083 -15.829 -5.2625 -31.704 -5.2625 -47.278c0 -15.28 1.6886 -30.271 5.0658 -44.644c1.5819 -6.729 3.4589 -13.262 5.631 -19.565
c5.0161 -14.5568 7.6308 -26.2776 8.475 -38.0149c0.0697 -0.963 0.1045 -3.2109 0.1045 -5.4157c0 -2.2049 -0.0348 -4.3667 -0.1045 -5.1576c-1.3688 -15.7535 -7.0571 -27.1383 -17.4993 -35.015c-2.7704 -2.09008 -4.1555 -4.84817 -4.1555 -7.60625
c0 -2.75809 1.3851 -5.51617 4.1555 -7.60625c10.4422 -7.87672 16.1305 -19.2615 17.4993 -35.015c0.0697 -0.7909 0.1045 -2.9527 0.1045 -5.1575c0 -2.2049 -0.0348 -4.4527 -0.1045 -5.4158c-0.877 -12.1962 -3.2376 -22.5893 -9.0242 -39.6705
c-5.7703 -17.0645 -8.8603 -33.7365 -9.9422 -53.6865c-0.0738 -1.311 -0.1107 -4.955 -0.1107 -8.61c0 -3.656 0.0369 -7.324 0.1107 -8.684c1.8933 -36.105 11.2044 -68.956 31.0561 -109.504c4.3277 -8.836 11.1881 -21.557 12.3929 -22.983
c1.809 -2.133 4.3428 -3.17 6.8676 -3.17c3.02331 0 6.03372 1.487 7.77119 4.359c0.85867 1.417 1.28701 2.959 1.28701 4.544c0 1.622 -0.44884 3.289 -1.34439 4.914c-12.2068 22.134 -18.3122 47.175 -18.3122 75.792c0 29.414 6.4496 62.607 19.3531 100.308
c1.86878 5.45 1.93435 5.672 2.69662 8.614l0.377034 1.451v20.4008v20.409l-0.409819 1.5901c-5.27847 20.2451 -17.7944 38.31 -38.4575 55.506c-1.0327 0.85242 -1.8688 1.5819 -1.8688 1.61469c0 0.032786 0.8361 0.762264 1.8688 1.61468
c20.6631 17.196 33.179 35.2609 38.4575 55.506l0.409819 1.5901v20.409v20.4008l-0.377034 1.4509c-0.573747 2.221 -0.958976 3.492 -1.62289 5.459c-5.27847 15.524 -8.19638 25.138 -10.9914 36.138c-6.3311 24.919 -9.5112 47.457 -9.5112 68.062
c0 28.584 6.12 53.449 18.4371 75.792c0.85552 1.554 1.24258 3.163 1.24258 4.71c0 4.839 -3.78831 9.065 -8.87317 9.065c-0.5774 0 -1.1716 -0.054 -1.7789 -0.169z" />
    <glyph glyph-name="brace21" unicode="&#xe115;" 
d="M-12.4616 301.816c-4.0356 -0.43 -5.7604 -1.775 -8.4343 -6.594c-26.5325 -47.734 -39.6213 -88.61 -41.7588 -130.476c-0.0701 -1.395 -0.1052 -5.013 -0.1052 -8.62c0 -3.606 0.0351 -7.2 0.1052 -8.546c1.1224 -21.044 4.0769 -36.559 10.7863 -56.6133
c5.8309 -17.4275 8.5794 -31.0353 8.5794 -43.052c0 -3.1882 -0.1935 -6.2644 -0.5742 -9.2703c-1.6836 -13.2951 -7.6503 -24.1805 -17.1904 -31.3933c-2.8225 -2.12921 -4.0851 -4.47298 -4.0851 -7.60076c0 -3.12778 1.2626 -5.47156 4.0851 -7.60076
c9.5484 -7.21285 15.5068 -18.0983 17.1904 -31.3934c0.3383 -2.6899 0.5312 -6.5538 0.5312 -9.9888c0 -1.6763 -0.0459 -3.2504 -0.1433 -4.536c-0.8996 -11.9664 -3.2929 -22.7363 -8.4261 -37.8965c-7.2391 -21.4029 -10.8796 -42.9109 -10.8796 -64.9599
c0 -35.261 9.3106 -71.906 28.1031 -111.714c4.3491 -9.227 11.6776 -23.389 14.9374 -28.885c1.843 -3.108 4.8306 -4.532 7.7857 -4.532c4.29606 0 8.52361 3.011 9.06635 8.238c0.03555 0.348 0.05479 0.677 0.05479 0.997c0 1.609 -0.48785 2.983 -1.83738 5.448
c-11.9829 21.935 -17.9412 46.81 -17.9412 75.089c0 8.725 0.5673 17.775 1.6998 27.162c2.7729 23.05 9.21 49.55 18.4366 75.925c0.86654 2.493 1.55977 4.754 2.0962 6.858l0.379625 1.502v20.6155v20.6153l-0.379625 1.4442
c-5.31475 20.5246 -18.8575 39.8607 -39.6709 56.6633c-0.6107 0.503412 -1.1223 0.924301 -1.1223 0.949059c0 0.024758 0.5116 0.4539 1.1223 0.949063c21.028 16.9758 34.5872 36.477 39.8359 57.2904l0.214571 0.8418v20.607v20.5988l-0.379625 1.5016
c-0.536427 2.097 -1.22966 4.358 -2.08794 6.817c-9.37514 26.821 -15.8287 53.544 -18.5768 76.874c-1.0847 9.215 -1.6284 18.096 -1.6284 26.661c0 28.382 5.9709 53.287 18.01 75.343c1.28754 2.359 1.84711 3.946 1.84711 5.595c0 0.687 -0.09709 1.385 -0.27909 2.154
c-0.92865 3.955 -4.73095 6.973 -8.59653 6.973c-0.2568 0 -0.5138 -0.013 -0.7703 -0.04z" />
    <glyph glyph-name="brace22" unicode="&#xe116;" 
d="M-13.2951 303.752c-3.2905 -0.482 -5.1601 -1.986 -7.3871 -5.966c-20.5243 -36.686 -33.9274 -71.984 -39.3119 -103.51c-2.1351 -12.544 -3.2951 -26.02 -3.2951 -37.795c0 -2.89 0.0699 -5.677 0.2123 -8.323c1.1218 -20.89 4.2295 -37.06 10.8937 -56.7532
c4.7862 -14.1343 7.2292 -24.7205 8.2263 -35.689c0.2414 -2.6577 0.3616 -5.2419 0.3616 -7.7493c0 -17.7729 -6.0354 -31.6859 -17.6868 -40.57c-1.2131 -0.92235 -1.5871 -1.25473 -2.0607 -1.81146c-1.4666 -1.72836 -2.1999 -3.82234 -2.1999 -5.91631
c0 -2.09398 0.7333 -4.18795 2.1999 -5.91631c0.4736 -0.55673 0.8476 -0.88911 2.0607 -1.81146c11.6514 -8.88414 17.6868 -22.797 17.6868 -40.5699c0 -2.5074 -0.1202 -5.0916 -0.3616 -7.7494c-1.0221 -11.1928 -3.3653 -21.2722 -8.5005 -36.52
c-7.1611 -21.2736 -10.7696 -42.6976 -10.7696 -64.6976c0 -39.93 11.8876 -81.76 35.997 -128.04c2.7338 -5.26 6.9134 -12.929 7.6696 -14.084c1.8592 -2.837 4.6997 -4.132 7.5104 -4.132c4.28695 0 8.50481 3.013 9.06691 8.162
c0.04406 0.404 0.06891 0.775 0.06891 1.134c0 1.669 -0.53918 3.05 -2.18781 6.054c-11.7008 21.324 -17.6886 46.824 -17.6886 75.114c0 3.734 0.1043 7.517 0.3136 11.345c1.4957 27.189 8.326 58.731 20.0091 92.318c0.96389 2.767 1.42922 4.279 2.05243 6.681
l0.415472 1.612v20.8067v20.8068l-0.29914 1.1799c-5.15185 20.5409 -18.8375 40.118 -40.0598 57.3102c-0.6431 0.519396 -1.1634 0.97335 -1.1634 1.00478c0 0.000249 0 0.00047 0.0001 0.000666c0.0083 0.033237 0.5567 0.490256 1.2215 1.03037
c21.3136 17.3667 34.8497 36.736 40.0016 57.2686l0.29914 1.1799v20.8069v20.8072l-0.415472 1.612c-0.623208 2.393 -1.09685 3.922 -2.01088 6.556c-13.4952 38.687 -20.4225 74.259 -20.4225 104.76c0 3.323 0.0822 6.585 0.2471 9.785
c1.2381 23.956 7.2791 46.4 17.4997 65.022c1.65358 3.008 1.87793 3.573 2.09398 5.21c0.05107 0.394 0.07585 0.784 0.07585 1.169c0 4.932 -4.07265 8.968 -9.01694 8.968c-0.4425 0 -0.8919 -0.033 -1.346 -0.1z" />
    <glyph glyph-name="brace23" unicode="&#xe117;" 
d="M-13.6207 305.735c-2.6773 -0.485 -4.8526 -2.016 -6.2833 -4.418c-1.9493 -3.288 -7.6888 -14.064 -10.8011 -20.297c-19.9207 -39.85 -30.3956 -75.198 -32.5876 -109.936c-0.2761 -4.384 -0.3096 -5.505 -0.3514 -11.228
c-0.0046 -0.587 -0.0069 -1.173 -0.0069 -1.757c0 -22.995 3.5343 -44.146 10.9754 -65.7187c0.6191 -1.8072 1.188 -3.4637 1.2466 -3.6813c0.0669 -0.2259 0.3932 -1.2466 0.7195 -2.284c4.5089 -14.1655 6.8213 -27.3568 6.8213 -38.5473
c0 -4.0508 -0.303 -7.8394 -0.9145 -11.3172c-2.2171 -12.5832 -8.0151 -22.5394 -17.0677 -29.3163c-2.7275 -2.04143 -4.0578 -4.52629 -4.0578 -7.58007c0 -3.05378 1.3303 -5.53864 4.0578 -7.58007c7.7558 -5.8064 13.1354 -13.9637 15.9382 -24.1792
c1.3622 -4.9755 2.0409 -10.5273 2.0409 -16.6042c0 -12.286 -2.7741 -26.7183 -8.2823 -42.8734c-2.1502 -6.3 -3.0956 -9.3033 -4.2 -13.3533c-4.84 -17.697 -7.2842 -35.502 -7.2842 -53.685c0 -42.951 13.6384 -88.015 41.5535 -138.778
c2.5015 -4.56 2.7191 -4.895 3.6645 -5.848c1.7971 -1.794 4.0917 -2.631 6.3592 -2.631c3.66496 0 7.25897 2.186 8.56666 6.053c0.34207 1.016 0.51655 1.984 0.51655 2.95c0 1.633 -0.49857 3.262 -1.5289 5.123c-12.2926 22.257 -18.4424 47.503 -18.4424 76.463
c0 30.152 6.6664 64.332 20.0069 103.359c1.60637 4.685 1.91594 5.689 2.54342 8.082l0.418326 1.623v21.0168v21.0167l-0.418326 1.6231c-5.35457 20.5649 -18.4817 39.264 -39.992 56.9592c-0.8032 0.66096 -1.4641 1.22988 -1.4641 1.26335
c0 0.033467 0.6609 0.60239 1.4641 1.26335c21.5103 17.6952 34.6374 36.3944 39.992 56.9593l0.418326 1.6231v21.0167v21.0164l-0.460159 1.782c-0.585651 2.217 -1.00398 3.564 -2.09163 6.735c-1.51434 4.401 -1.6231 4.711 -2.71912 8.074
c-11.8421 36.383 -17.7641 68.429 -17.7641 96.887c0 29.064 6.1772 54.385 18.5338 76.76c1.01233 1.831 1.50509 3.454 1.50509 5.081c0 0.968 -0.17449 1.937 -0.51784 2.951c-1.22736 3.638 -4.77245 6.075 -8.53686 6.075c-0.521 0 -1.0461 -0.046 -1.5699 -0.143z" />
    <glyph glyph-name="brace24" unicode="&#xe118;" 
d="M-13.7901 307.775c-2.3503 -0.422 -4.5489 -1.879 -5.8715 -3.875c-1.7269 -2.595 -10.1088 -18.584 -14.1354 -26.94c-19.013 -39.517 -28.2794 -72.918 -30.1579 -108.729c-0.0758 -1.407 -0.1137 -5.28 -0.1137 -9.139c0 -3.859 0.0379 -7.705 0.1137 -9.057
c0.3875 -7.143 0.8508 -12.349 1.5837 -17.69c1.9375 -14.279 4.6585 -25.651 9.5444 -39.9971c5.3997 -15.8371 8.1291 -28.8942 8.6093 -41.1259c0.0395 -1.0256 0.0592 -2.0399 0.0592 -3.0424c0 -17.8131 -6.2178 -31.9415 -18.0528 -40.9055
c-2.8389 -2.14811 -4.0857 -4.46471 -4.0857 -7.61528c0 -3.1253 1.2552 -5.45874 4.0857 -7.59844c11.835 -8.96407 18.0528 -23.0924 18.0528 -40.9055c0 -1.0026 -0.0197 -2.0168 -0.0592 -3.0425c-0.4802 -12.2316 -3.2096 -25.2888 -8.6093 -41.1259
c-3.7908 -11.1195 -6.2675 -20.4955 -8.0281 -30.3935c-2.1378 -11.989 -3.2169 -24.026 -3.2169 -36.207c0 -42.202 12.9531 -86.135 39.7096 -135.811c3.5465 -6.588 4.6753 -8.542 5.3998 -9.376c1.894 -2.165 4.3366 -3.128 6.7336 -3.128
c4.63339 0 9.09618 3.598 9.09618 9.065c0 0.146 -0.00315 0.292 -0.00953 0.44c-0.07581 1.845 -0.31168 2.527 -1.79431 5.231c-12.1367 22.222 -18.2094 47.456 -18.2094 76.354c0 30.653 6.8329 65.427 20.5092 105.099c1.13724 3.294 1.77746 5.391 2.33345 7.607
l0.303264 1.188v21.1775v21.1779l-0.379079 1.449c-5.41662 20.8493 -18.5833 39.6011 -40.3509 57.4937c-0.834 0.690768 -1.5163 1.28045 -1.5163 1.31414s0.6823 0.623375 1.5163 1.31414c21.7845 17.9009 34.9343 36.6443 40.3593 57.519l0.370655 1.4236v21.1779
v21.1781l-0.303264 1.188c-0.555983 2.215 -1.19621 4.313 -2.33345 7.606c-13.7214 39.803 -20.5775 74.695 -20.5775 105.458c0 29.011 6.098 54.349 18.2862 76.669c1.49104 2.738 1.71007 3.387 1.78588 5.265c0.00526 0.131 0.00787 0.262 0.00787 0.392
c0 5.117 -4.04416 9.071 -8.96522 9.071c-0.5539 0 -1.119 -0.05 -1.6906 -0.154z" />
    <glyph glyph-name="brace25" unicode="&#xe119;" 
d="M-13.2741 309.908c-3.3757 -0.407 -5.4114 -1.993 -7.6082 -5.929c-16.4039 -29.356 -28.465 -57.838 -35.3608 -83.521c-4.7498 -17.718 -7.2095 -33.121 -8.151 -51.171c-0.0764 -1.412 -0.1145 -5.29 -0.1145 -9.156c0 -3.865 0.0381 -7.718 0.1145 -9.08
c1.1026 -20.424 4.3512 -37.888 10.3054 -55.4284c4.5124 -13.291 6.4801 -20.6278 8.1511 -30.4074c0.9951 -5.7997 1.4893 -11.2961 1.4893 -16.4657c0 -18.1844 -6.1157 -32.3269 -18.0629 -41.4144c-2.9431 -2.2392 -4.1815 -4.51234 -4.1815 -7.68454
c0 -3.17221 1.2384 -5.44534 4.1815 -7.68455c11.8769 -9.02974 18.0717 -23.2225 18.0717 -41.1937c0 -2.3195 -0.1032 -4.7019 -0.3107 -7.1443c-0.9924 -11.7303 -3.6811 -23.4522 -8.8296 -38.4142c-6.2341 -18.1088 -9.6014 -35.7168 -10.7125 -55.9038
c-0.1854 -3.386 -0.278 -6.803 -0.278 -10.25c0 -39.76 12.3239 -83.48 36.7075 -130.124c3.7065 -7.074 7.6421 -14.258 8.3546 -15.225c1.8801 -2.546 4.5476 -3.684 7.1819 -3.684c4.61519 0 9.12865 3.493 9.12865 9.027c0 2.095 -0.29687 2.96 -2.1035 6.234
c-10.2546 18.576 -16.4632 41.392 -17.7694 65.311c-0.1948 3.588 -0.2926 7.225 -0.2926 10.916c0 31.031 6.9167 65.877 21.3191 107.727c0.67006 1.96 1.01782 3.088 1.5861 5.251l0.458019 1.747v21.3573v21.3572l-0.41561 1.6116
c-1.17898 4.5463 -3.1298 9.9662 -5.17392 14.3598c-7.51487 16.1918 -18.6431 29.6355 -36.7773 44.4533l-0.3393 0.271419l0.3393 0.2799c12.3156 10.0849 20.8738 18.9654 27.8798 28.94c6.42077 9.135 11.4844 19.8984 14.0714 29.8646l0.41561 1.6115v21.3573v21.3571
l-0.458019 1.747c-0.568281 2.146 -0.907561 3.283 -1.5861 5.251c-13.6982 39.932 -20.3055 71.578 -21.281 101.934c-0.0681 2.118 -0.102 4.225 -0.102 6.321c0 28.429 6.2452 54.82 18.1259 76.377c1.80663 3.283 2.1035 4.148 2.1035 6.234
c0 5.058 -4.08644 9.048 -8.98705 9.048c-0.3592 0 -0.7227 -0.021 -1.0894 -0.065z" />
    <glyph glyph-name="brace26" unicode="&#xe11a;" 
d="M-13.7239 311.924c-2.4083 -0.367 -4.7141 -1.836 -6.0464 -3.843c-1.8788 -2.827 -10.0773 -18.412 -14.3302 -27.243c-19.4372 -40.369 -28.8228 -74.111 -30.7358 -110.551c-0.0768 -1.418 -0.1152 -5.28 -0.1152 -9.13c0 -3.851 0.0384 -7.69 0.1152 -9.06
c1.17 -21.675 4.1847 -37.329 11.2046 -58.3291c4.9447 -14.7743 7.3103 -24.8687 8.4035 -35.7829c0.3227 -3.2215 0.4853 -6.2907 0.4853 -9.2388c0 -5.1643 -0.4989 -9.9569 -1.5101 -14.5453c-2.4596 -11.2132 -8.2156 -20.4791 -16.7301 -26.9184
c-2.7883 -2.10513 -4.1825 -4.86571 -4.1825 -7.62629c0 -2.76058 1.3942 -5.52116 4.1825 -7.62629c10.6324 -8.03616 16.5593 -19.702 18.0367 -35.5011c0.1028 -1.0986 0.1571 -3.8401 0.1571 -6.4581c0 -2.1645 -0.0371 -4.2446 -0.1144 -5.2418
c-0.9821 -12.5881 -3.3306 -23.1436 -8.728 -39.2844c-4.7397 -14.1596 -7.037 -23.4506 -9.0012 -36.3806c-1.5508 -10.182 -2.3323 -20.436 -2.3323 -30.816c0 -44.092 14.1034 -90.44 43.2478 -143.06c1.8703 -3.373 2.2119 -3.886 3.2111 -4.834
c1.7983 -1.711 4.0021 -2.491 6.1692 -2.491c4.19308 0 8.24874 2.92 8.96377 7.667c0.07946 0.523 0.12154 1.012 0.12154 1.487c0 1.62 -0.48826 3.082 -1.65021 5.208c-12.4041 22.705 -18.6101 48.503 -18.6101 77.955c0 31.298 7.0087 66.723 21.0355 106.946
c0.98211 2.827 1.37495 4.091 2.00692 6.499l0.469704 1.785v21.5125v21.521l-0.350143 1.3237c-5.64499 21.5808 -19.4202 40.9667 -42.1197 59.2681c-0.3107 0.251906 -0.5553 0.4873 -0.5553 0.535712c0 0.000826 0.0001 0.001597 0.0002 0.002313
c0.0171 0.034161 0.854 0.742987 1.8617 1.57138c19.5056 16.0639 31.6752 32.068 38.3877 50.4633c1.10167 3.0232 1.87027 5.4998 2.59618 8.3864c0.179342 0.6917 0.179342 0.7259 0.179342 22.2042v21.5034l-0.469704 1.785
c-0.589266 2.238 -1.02481 3.673 -1.7251 5.688c-14.2548 40.79 -21.3708 76.767 -21.3708 108.43c0 25.872 4.7508 48.863 14.2398 69.246c1.48597 3.186 2.5364 5.27 4.42376 8.72c0.98211 1.793 1.34933 2.741 1.53721 3.962c0.07053 0.468 0.10458 0.931 0.10458 1.386
c0 4.968 -4.05927 9.018 -9.02489 9.018c-0.4723 0 -0.9528 -0.037 -1.4388 -0.113z" />
    <glyph glyph-name="brace27" unicode="&#xe11b;" 
d="M-13.9901 313.982c-2.8805 -0.525 -4.9098 -2.081 -6.621 -5.074c-8.6417 -15.107 -18.427 -35.34 -24.79 -51.248c-12.2618 -30.62 -18.3411 -57.044 -19.8802 -86.417c-0.0731 -1.414 -0.1097 -5.215 -0.1097 -9.008c0 -3.793 0.0366 -7.579 0.1097 -8.963
c1.1694 -21.755 4.2047 -37.688 11.1095 -58.3422c4.2649 -12.7691 6.1309 -19.8974 7.8162 -29.9665c0.918 -5.4624 1.3726 -10.6767 1.3726 -15.6139c0 -18.3706 -6.2943 -32.9038 -18.4324 -42.1006c-2.7731 -2.09808 -4.1596 -4.84536 -4.1596 -7.59265
c0 -2.74728 1.3865 -5.49457 4.1596 -7.59265c11.5652 -8.76205 17.8251 -22.1589 18.3496 -39.3132c0.0263 -0.8594 0.0395 -1.7218 0.0395 -2.5893c0 -7.6551 -1.0319 -15.7043 -3.264 -25.6058c-1.35 -6.0191 -2.7516 -10.8086 -5.9245 -20.3016
c-5.3398 -15.9766 -8.2118 -28.7366 -9.9315 -44.0256c-0.8265 -7.386 -1.2382 -14.898 -1.2382 -22.505c0 -23.812 4.0337 -48.553 12.0038 -73.284c0.3783 -1.178 0.7223 -2.279 0.7739 -2.425c0.4041 -1.427 3.6458 -10.516 5.1592 -14.472
c6.234 -16.329 14.635 -34.248 24.4719 -52.194c3.0009 -5.477 3.2675 -5.907 4.2821 -6.896c1.835 -1.787 4.0534 -2.582 6.2256 -2.582c4.65612 0 9.09981 3.656 9.09981 9.044c0 0.155 -0.00367 0.311 -0.0111 0.469c-0.08599 1.805 -0.32675 2.51 -1.86592 5.339
c-12.3236 22.65 -18.4917 48.226 -18.4917 77.555c0 31.388 7.0645 67.072 21.2089 108.066c1.02325 2.957 1.71974 5.245 2.26146 7.437l0.26656 1.049v21.6176v21.6171l-0.386942 1.479c-5.52037 21.2302 -19.2095 40.6374 -41.463 58.7721
c-0.8684 0.705089 -1.5735 1.307 -1.5735 1.34139c0 0.034395 0.7051 0.636304 1.5649 1.3414c11.1267 9.063 20.1898 18.513 26.9999 28.1521c6.73283 9.5446 11.9952 20.7229 14.549 30.9296l0.309553 1.221v21.5913v21.5914l-0.26656 1.049
c-0.541718 2.193 -1.23821 4.48 -2.26146 7.438c-14.1841 41.094 -21.2702 76.92 -21.2702 108.44c0 29.453 6.1875 55.147 18.553 77.868c1.53917 2.829 1.77993 3.534 1.86592 5.34c0.00704 0.149 0.01051 0.298 0.01051 0.446c0 5.073 -4.09863 9.066 -8.98532 9.066
c-0.5373 0 -1.0841 -0.048 -1.636 -0.148z" />
    <glyph glyph-name="brace28" unicode="&#xe11c;" 
d="M-14.3718 316.016c-2.9783 -0.632 -4.6925 -2.095 -6.7271 -5.723c-27.2544 -48.509 -41.8427 -92.568 -44.3967 -134.065c-0.2668 -4.363 -0.4012 -8.679 -0.4012 -12.979c0 -11.748 1.0033 -23.373 3.0504 -35.504c1.7835 -10.562 4.1817 -19.852 8.3894 -32.423
c5.437 -16.2505 7.8352 -26.787 8.8741 -38.9164c0.2052 -2.4132 0.3071 -4.7736 0.3071 -7.077c0 -18.2988 -6.4279 -33.0057 -18.5316 -42.0642c-2.7661 -2.0692 -4.1492 -4.83967 -4.1492 -7.61014c0 -2.77047 1.3831 -5.54094 4.1492 -7.61013
c12.1996 -9.12602 18.5173 -23.7385 18.5173 -42.3367c0 -5.2386 -0.5013 -10.7935 -1.5135 -16.631c-1.7056 -9.8438 -3.4977 -16.6488 -7.74 -29.3496c-5.7747 -17.2978 -8.8828 -31.6178 -10.3893 -47.9208c-0.5948 -6.45 -0.8942 -12.924 -0.8942 -19.437
c0 -44.107 13.7352 -90.004 42.4772 -142.592c3.2813 -6 3.541 -6.415 4.6665 -7.497c1.7991 -1.726 3.9818 -2.498 6.1258 -2.498c4.63479 0 9.08859 3.61 9.09451 9.008c0 1.931 -0.32899 3.065 -1.54973 5.264c-12.6014 22.784 -18.907 48.764 -18.907 78.595
c0 31.88 7.2017 68.158 21.6168 109.632c0.77053 2.225 1.35926 4.156 1.91335 6.277l0.389597 1.515v21.7659v21.7655l-0.354966 1.3506c-5.63617 21.6097 -19.1249 40.7346 -41.8773 59.3486c-0.8658 0.709932 -1.5757 1.31597 -1.5757 1.3506
c0 0.034631 0.7099 0.640671 1.5757 1.35061c22.7524 18.6227 36.2412 37.7389 41.8773 59.3486l0.354966 1.3506v21.7655v21.7654l-0.389597 1.515c-0.588725 2.277 -1.15147 4.087 -2.1904 7.1c-14.2673 41.219 -21.3962 77.366 -21.3962 109.171
c0 29.956 6.3238 56.061 18.9634 78.926c1.22074 2.199 1.54973 3.333 1.54973 5.264c-0.00766 5.091 -4.13652 9.007 -8.99561 9.007c-0.6279 0 -1.2681 -0.065 -1.9131 -0.202z" />
    <glyph glyph-name="brace29" unicode="&#xe11d;" 
d="M-13.7295 318.244c-2.3274 -0.297 -4.5765 -1.596 -6.0061 -3.479c-1.3773 -1.795 -9.4581 -16.998 -13.9561 -26.238c-20.8078 -42.731 -30.7279 -78.071 -32.4887 -115.72c-0.0741 -1.556 -0.1112 -5.06 -0.1112 -8.543c0 -3.482 0.0371 -6.943 0.1112 -8.412
c0.863 -17.478 3.0161 -31.19 7.4357 -47.377c0.9414 -3.435 1.8829 -6.434 3.9576 -12.6401c3.9663 -11.8553 5.762 -18.5588 7.4444 -27.8599c1.172 -6.4642 1.7546 -12.555 1.7546 -18.2496c0 -18.7029 -6.2844 -33.1318 -18.6135 -42.4739
c-2.7318 -2.0702 -4.1224 -4.5851 -4.1224 -7.46405c0 -0.345659 0.02 -0.696565 0.0602 -1.05258c0.3138 -2.81563 1.4906 -4.75955 4.0622 -6.70347c12.3291 -9.34207 18.6135 -23.771 18.6135 -42.4739c0 -5.6947 -0.5826 -11.7855 -1.7546 -18.2496
c-1.6911 -9.3361 -3.4694 -15.9698 -7.488 -27.9907c-6.8168 -20.3722 -10.016 -36.7602 -11.1579 -57.0532c-0.1623 -2.95 -0.2497 -7.572 -0.2497 -11.866c0 -3.319 0.0523 -6.442 0.1625 -8.445c2.0311 -37.798 11.7855 -72.257 32.4626 -114.665
c3.6786 -7.549 10.5913 -20.677 13.1977 -25.071c1.8419 -3.107 4.8402 -4.536 7.8056 -4.536c4.2481 0 8.42856 2.933 9.0446 8.067c0.04786 0.4 0.07382 0.776 0.07382 1.141c0 1.632 -0.51729 3.065 -1.91314 5.614c-9.51908 17.391 -15.4555 36.848 -17.6871 57.969
c-0.7671 7.218 -1.0112 12.108 -1.0112 20.486c0 31.32 7.0261 67.705 20.7555 107.525c1.66497 4.821 2.25774 6.695 2.85922 8.979l0.488159 1.883l-0.0174343 22.0454l-0.0261513 22.0543l-0.462007 1.6563c-6.23275 22.3333 -20.8775 42.618 -43.5508 60.3486
l-0.2527 0.191777l0.2527 0.200494c22.621 17.6435 37.3268 38.0241 43.5508 60.34l0.462007 1.6562l0.0261513 22.0543l0.0174343 22.0456l-0.488159 1.883c-0.601481 2.301 -1.19425 4.149 -2.9028 9.109c-0.72352 2.11 -1.41218 4.132 -1.5255 4.49
c-0.11332 0.357 -0.53174 1.638 -0.92401 2.833c-12.2196 37.395 -18.3305 70.66 -18.3305 100.246c0 29.933 6.2547 56.103 18.7664 78.978c1.14195 2.083 1.48191 2.876 1.68241 3.879c0.1307 0.644 0.19317 1.281 0.19317 1.904c0 4.974 -3.98323 9.059 -9.01356 9.059
c-0.3898 0 -0.7859 -0.025 -1.1869 -0.075z" />
    <glyph glyph-name="brace30" unicode="&#xe11e;" 
d="M-13.7798 320.409c-2.2469 -0.413 -3.6775 -1.106 -5.0818 -2.449c-1.0094 -0.966 -1.2463 -1.325 -3.1948 -4.827c-16.685 -30.026 -28.9112 -58.964 -36.0469 -85.312c-5.776 -21.325 -8.6645 -42.157 -8.6645 -62.509c0 -23.407 3.821 -46.178 11.4644 -68.3289
c6.3487 -18.4104 9.428 -33.8155 9.428 -47.2161c0 -0.8459 -0.0122 -1.6838 -0.0367 -2.514c-0.5179 -17.352 -6.9865 -31.1669 -18.73 -39.9965c-2.8174 -2.11524 -4.0286 -4.39724 -4.0286 -7.59204c0 -3.1948 1.2112 -5.47681 4.0286 -7.59205
c12.4084 -9.33022 18.7767 -23.9701 18.7767 -42.8188c0 -5.3363 -0.5105 -11.0099 -1.5388 -16.996c-1.7554 -10.2251 -3.8267 -17.94 -8.5663 -31.9041c-5.5558 -16.3685 -9.0578 -34.1075 -10.2427 -51.9155c-0.3949 -5.854 -0.4476 -7.487 -0.4476 -14.175
c0.0088 -44.095 13.2181 -89.191 41.5149 -141.703c4.4148 -8.198 5.1082 -9.348 6.2404 -10.454c1.8191 -1.76 4.0273 -2.549 6.1923 -2.549c4.62485 0 9.05284 3.599 9.07077 9.009c0 2.133 -0.25453 2.949 -1.84315 5.837c-2.06258 3.739 -3.85307 7.381 -5.61722 11.41
c-8.8278 20.187 -13.2518 42.484 -13.2518 67.511c0 29.641 6.2053 63.113 18.6496 101.445c0.9128 2.8 1.4833 4.494 3.52832 10.444c0.67582 1.975 1.17611 3.651 1.70273 5.644l0.473954 1.817v21.9508v21.9423l-0.272085 1.0708
c-5.56458 22.1442 -20.9154 43.6213 -44.1743 61.8335l-0.2545 0.193093l0.2545 0.201869c23.2589 18.2034 38.6097 39.6805 44.1743 61.8247l0.272085 1.0708v21.9423v21.9509l-0.473954 1.817c-0.517839 1.992 -1.02691 3.669 -1.70273 5.644
c-0.24575 0.702 -0.87769 2.554 -1.42186 4.125c-13.7389 40.063 -20.8098 77.029 -20.8098 108.511c0 5.423 0.2098 10.684 0.6316 15.77c1.9221 23.233 8.2503 45.096 18.2385 63.018c0.44762 0.799 0.93035 1.703 1.07078 2.019
c0.58477 1.261 0.85837 2.573 0.85837 3.856c0 4.013 -2.67622 7.748 -6.87931 8.792c-0.5187 0.133 -1.8386 0.236 -2.6769 0.236c-0.2681 0 -0.4869 -0.011 -0.6145 -0.034z" />
    <glyph glyph-name="brace31" unicode="&#xe11f;" 
d="M-14.051 322.515c-2.9516 -0.54 -5.1433 -2.059 -6.6014 -4.587c-2.2004 -3.809 -6.4599 -11.744 -9.6855 -18.028c-24.8001 -48.378 -36.8786 -91.782 -36.8786 -133.292c0 -10.719 0.8054 -21.311 2.405 -31.83c2.0413 -13.458 4.6571 -23.966 9.438 -38.0169
c6.1616 -18.1008 9.233 -33.5557 9.233 -46.6847c0 -8.9399 -1.4241 -16.8013 -4.2665 -23.6854c-3.2432 -7.8474 -8.0683 -14.1659 -14.5901 -19.1059c-2.2447 -1.69673 -3.2433 -3.11067 -3.906 -5.50553c-0.1105 -0.41093 -0.1657 -1.26592 -0.1657 -2.12091
c0 -0.854997 0.0552 -1.70999 0.1657 -2.12091c0.6627 -2.39487 1.6613 -3.80881 3.906 -5.50554c6.5395 -4.95764 11.3203 -11.2231 14.5812 -19.1058c2.8473 -6.8728 4.2736 -14.737 4.2736 -23.6848c0 -13.1307 -3.0715 -28.5952 -9.2312 -46.6853
c-2.7218 -7.9893 -3.7293 -11.3643 -5.5585 -18.6113c-4.1324 -16.411 -6.1999 -33.376 -6.1999 -50.695c0 -15.126 1.5771 -30.522 4.7329 -46.054c6.4158 -31.539 19.7245 -65.412 40.2885 -102.493c1.5377 -2.766 1.7586 -3.155 2.1828 -3.711
c1.7983 -2.344 4.5063 -3.545 7.2196 -3.545c2.3398 0 4.68364 0.893 6.45141 2.714c1.59952 1.644 2.43021 3.579 2.51858 5.868c0.00914 0.231 0.01421 0.449 0.01421 0.657c0 1.807 -0.38187 2.886 -1.80815 5.485c-12.6694 23.156 -19.0106 49.421 -19.0106 79.573
c0 32.249 7.2536 68.945 21.7767 111.044c1.19301 3.455 1.86463 5.647 2.44788 7.98l0.318137 1.246v22.0217v22.031l-0.43302 1.679c-5.62925 21.7129 -19.9012 41.8615 -42.7541 60.3576c-1.0251 0.83069 -1.8734 1.52883 -1.8734 1.55534
c0 0.026512 0.8483 0.724645 1.8734 1.55533c22.8529 18.4961 37.1248 38.6448 42.7541 60.3577l0.43302 1.679v22.031v22.0223l-0.318137 1.246c-0.583251 2.324 -1.25487 4.524 -2.44788 7.98c-14.5704 42.286 -21.8483 79.085 -21.8483 111.427
c0 30.251 6.3677 56.603 19.0911 79.897c1.41819 2.598 1.79932 3.677 1.79932 5.484c0 0.208 -0.00508 0.426 -0.01422 0.658c-0.15907 3.994 -2.75718 7.202 -6.73389 8.324c-0.4516 0.126 -1.9212 0.233 -2.8676 0.233c-0.3129 0 -0.5687 -0.012 -0.7114 -0.038z" />
    <glyph glyph-name="brace32" unicode="&#xe120;" 
d="M-13.8716 324.673c-2.4647 -0.284 -4.8581 -1.69 -6.2818 -3.683c-1.1745 -1.647 -8.1859 -14.726 -12.3322 -23.019c-22.6092 -45.192 -33.7314 -84.395 -35.0571 -123.572c-0.043 -1.291 -0.0626 -3.49 -0.0626 -5.892c0 -4.07 0.0564 -8.722 0.1515 -10.524
c1.1656 -21.764 4.7158 -40.298 11.4336 -59.7306c6.3941 -18.5005 9.5912 -34.4993 9.5912 -47.976c0 -6.0458 -0.6434 -11.5839 -1.9302 -16.6126c-2.8473 -11.1133 -8.6397 -20.0556 -17.0837 -26.4085c-2.7716 -2.08207 -4.1574 -4.84482 -4.1574 -7.60757
c0 -2.76274 1.3858 -5.52549 4.1574 -7.60756c12.5076 -9.40803 19.0139 -24.2556 19.0139 -43.1781c0 -2.6424 -0.1269 -5.3642 -0.382 -8.1618c-1.1389 -12.5369 -3.7638 -23.6057 -9.8409 -41.5522c-7.2653 -21.437 -10.9112 -43.981 -10.9112 -67.083
c0 -14.697 1.4756 -29.62 4.4336 -44.628c6.4954 -32.913 20.2246 -67.837 41.9529 -106.729c1.6283 -2.909 3.3366 -4.386 5.9437 -5.107c0.8285 -0.229 1.6487 -0.337 2.4467 -0.337c4.92774 0 9.01031 4.106 9.01031 9.032c0 0.838 -0.11817 1.7 -0.37046 2.569
c-0.24024 0.846 -0.56055 1.522 -1.63718 3.453c-10.2769 18.525 -16.6477 40.912 -18.4539 64.864c-0.3561 4.714 -0.5334 9.574 -0.5334 14.57c0 31.96 7.2566 69.525 21.4075 110.577c1.91302 5.543 2.12656 6.202 2.91846 9.245l0.444887 1.726v22.1108v22.1198
l-0.409296 1.5571c-5.78353 22.2977 -20.1 42.3977 -43.768 61.4923c-0.6851 0.551655 -1.2457 1.03213 -1.2457 1.06772s0.5606 0.516069 1.2457 1.06773c23.7214 19.1569 37.9756 39.1857 43.768 61.4923l0.409296 1.5571v22.1198v22.1104l-0.489376 1.869
c-0.613944 2.358 -0.969854 3.55 -1.70836 5.677c-15.1741 43.898 -22.6405 81.186 -22.6405 113.94c0 14.8 1.5245 28.674 4.5514 41.815c3.0786 13.382 8.3193 27.245 14.5033 38.393c1.07663 1.931 1.39694 2.607 1.63718 3.453
c0.25024 0.864 0.36795 1.724 0.36795 2.563c0 4.875 -3.97291 9.031 -9.0146 9.031c-0.3546 0 -0.7145 -0.02 -1.0786 -0.063z" />
    <glyph glyph-name="brace33" unicode="&#xe121;" 
d="M-14.4505 326.749c-3.0997 -0.591 -4.9989 -2.079 -6.8534 -5.384c-31.4238 -55.891 -46.7623 -105.402 -46.7623 -152.564c0 -19.461 2.6118 -38.521 7.7828 -57.465c0.9138 -3.342 1.8365 -6.28 3.9329 -12.5425c4.3002 -12.8558 6.2532 -20.2109 7.9733 -30.0118
c1.1119 -6.3264 1.6644 -12.3072 1.6644 -17.9181c0 -19.1155 -6.4121 -33.9365 -18.9548 -43.4941c-3.0818 -2.34719 -4.2375 -4.46146 -4.2375 -7.74932c0 -3.28786 1.1557 -5.40212 4.2375 -7.74932c12.5427 -9.54382 18.9548 -24.3723 18.9548 -43.492
c0 -5.6121 -0.5525 -11.5938 -1.6644 -17.9202c-1.7201 -9.8277 -3.6642 -17.1112 -8.0181 -30.1462c-2.1053 -6.3074 -3.1983 -9.8364 -4.1658 -13.4384c-4.2734 -15.991 -6.3787 -29.456 -7.2745 -46.63c-0.0762 -1.474 -0.1143 -5.411 -0.1143 -9.346
s0.0381 -7.868 0.1143 -9.333c2.1501 -40.744 13.6083 -79.5 37.0265 -125.225c4.3629 -8.511 9.8008 -18.527 10.6967 -19.683c1.8743 -2.427 4.538 -3.56 7.1714 -3.56c3.84914 0 7.63347 2.42 8.7931 6.75c0.21136 0.79 0.32467 1.514 0.32467 2.241
c0 1.771 -0.67094 3.563 -2.23288 6.395c-12.5226 22.698 -18.9126 49.9 -18.9126 80.23c0 6.145 0.2623 12.418 0.789 18.809c2.2845 27.79 9.4784 59.316 21.4025 93.798c1.20943 3.503 1.59466 4.73 2.28448 7.364l0.492731 1.89v22.209v22.1998l-0.492731 1.8813
c-5.89486 22.3969 -20.0408 42.1957 -44.0771 61.681c-0.6898 0.555444 -1.2542 1.03922 -1.2542 1.07505c0 0.035835 0.5644 0.519607 1.2542 1.07505c24.0363 19.4853 38.1912 39.2841 44.0771 61.681l0.492731 1.8813v22.1998v22.2087l-0.492731 1.89
c-0.689819 2.634 -1.07505 3.853 -2.28448 7.364c-14.8754 43.071 -22.2707 80.735 -22.2707 113.5c0 3.662 0.0923 7.263 0.277 10.803c1.3527 25.9 7.8657 49.676 19.2254 70.192c1.35791 2.451 1.63967 3.358 1.63967 5.367c0 0.033 -0.00007 0.065 -0.00021 0.098
c-0.02417 5.051 -4.14134 9.023 -8.91849 9.023c-0.5353 0 -1.0789 -0.05 -1.626 -0.154z" />
    <glyph glyph-name="brace34" unicode="&#xe122;" 
d="M-14.6578 328.887c-3.2111 -0.623 -4.9069 -2.075 -7.1439 -6.098c-20.3405 -36.532 -33.7084 -69.581 -40.7351 -100.755c-3.9829 -17.654 -5.9711 -35.136 -5.9711 -52.309c0 -24.013 3.8875 -47.421 11.6448 -69.8512c6.5856 -19.0331 9.8676 -35.23 9.8676 -48.9447
c0 -10.386 -1.8822 -19.3485 -5.6372 -27.0412c-3.3284 -6.8282 -7.6942 -12.1772 -13.5302 -16.5971c-2.9857 -2.25504 -4.1403 -4.40184 -4.1493 -7.6942c0 -3.28334 1.1636 -5.43916 4.1493 -7.6942c4.934 -3.73434 8.8668 -8.20834 11.9517 -13.5843
c4.8089 -8.3823 7.2177 -18.3031 7.2177 -30.0369c0 -13.7091 -3.2882 -29.8929 -9.8786 -48.9892c-5.6918 -16.488 -9.4171 -34.168 -10.8242 -51.279c-0.5016 -6.124 -0.754 -12.237 -0.754 -18.36c0 -30.107 6.1023 -60.46 18.6951 -93.553
c6.9726 -18.329 16.9849 -39.41 28.179 -59.38c2.3632 -4.213 4.6724 -5.773 8.5872 -5.773c5.16852 0 8.97503 3.806 8.97503 8.975c0 2.21 -0.20747 2.85 -1.89424 5.908c-12.8421 23.319 -19.2697 49.932 -19.2697 80.596c0 32.83 7.3679 70.303 22.1201 113.347
c1.47931 4.32 1.94836 5.845 2.64291 8.524l0.414928 1.596v22.2351v22.2437l-0.369827 1.4252c-5.89918 22.8481 -20.0428 42.7827 -44.3251 62.4827c-0.8389 0.68554 -1.5334 1.28087 -1.5334 1.31695c0 0.045101 0.6945 0.631411 1.5334 1.31694
c24.156 19.5286 38.4259 39.6526 44.3251 62.4827l0.369827 1.4252v22.2437v22.2348l-0.414928 1.596c-0.694552 2.688 -1.1636 4.204 -2.64291 8.525c-14.7938 43.136 -22.1844 80.745 -22.1844 113.712c0 30.793 6.448 57.537 19.334 80.952
c1.68677 3.058 1.89424 3.698 1.89424 5.908c0 5.112 -4.09266 9.06 -8.92443 9.06c-0.5648 0 -1.1397 -0.054 -1.7194 -0.166z" />
    <glyph glyph-name="brace35" unicode="&#xe123;" 
d="M-13.7138 331.243c-3.1151 -0.363 -5.3493 -1.68 -6.9386 -4.077c-1.0354 -1.562 -6.8933 -12.434 -10.5261 -19.527c-23.7675 -46.445 -35.338 -85.525 -37.5903 -127.011c-0.0818 -1.458 -0.1226 -5.568 -0.1226 -9.676s0.0408 -8.216 0.1226 -9.669
c0.9082 -16.765 2.8245 -29.58 6.6117 -44.275c1.7074 -6.629 2.7881 -10.171 5.658 -18.5723c6.1261 -17.9739 9.1875 -33.6978 9.1875 -47.1415c0 -19.4816 -6.429 -34.1747 -19.2776 -43.9872c-2.9788 -2.2705 -4.1777 -4.47742 -4.1777 -7.68336
c0 -3.20595 1.1989 -5.41287 4.1777 -7.68337c8.3191 -6.35739 13.8864 -14.7128 16.9561 -25.4568c1.5682 -5.5008 2.3513 -11.6393 2.3513 -18.3933c0 -13.4294 -3.0959 -29.2923 -9.2718 -47.4148c-2.3431 -6.8934 -3.3694 -10.1534 -4.55 -14.4944
c-5.1819 -18.972 -7.798 -38.065 -7.798 -57.574c0 -45.25 14.0751 -92.73 42.8545 -146.081c5.8851 -10.898 6.2574 -11.443 8.7096 -12.742c1.3951 -0.742 2.8407 -1.079 4.2424 -1.079c4.78641 0 9.06045 3.928 9.06045 9.058c0 0.517 -0.04338 1.046 -0.13398 1.584
c-0.22705 1.299 -0.44502 1.808 -2.17968 4.986c-12.6709 23.156 -19.0094 49.918 -19.0094 80.636c0 32.978 7.3057 70.516 21.9247 113.047c1.72558 5.04 2.17968 6.466 2.89715 9.182l0.535837 2.052v22.2783v22.2873l-0.499509 1.9253
c-5.87605 22.7232 -21.0339 43.857 -45.1647 63.0109c-0.5541 0.445013 -1.0172 0.835538 -1.0172 0.871866c0 0.036328 0.4631 0.426854 1.0172 0.871871c24.1308 19.1449 39.2886 40.2968 45.1647 63.0109l0.499509 1.9254v22.2872v22.278l-0.535837 2.053
c-0.717473 2.706 -1.17157 4.159 -2.86082 9.082c-14.6883 42.687 -22.0288 80.379 -22.0288 113.509c0 31.09 6.4641 58.164 19.386 81.581c1.69833 3.079 1.97079 3.905 1.97079 5.994c0 4.917 -4.12387 9.079 -8.75197 9.079c-0.296 0 -0.594 -0.017 -0.8931 -0.052z" />
    <glyph glyph-name="brace36" unicode="&#xe124;" 
d="M-14.1736 333.444c-0.128 -0.018 -0.4755 -0.082 -0.7772 -0.137c-3.1456 -0.567 -4.8007 -2.049 -7.288 -6.529c-26.1525 -47.02 -40.9295 -88.443 -45.5565 -127.699c-1.0668 -9.037 -1.5985 -18.031 -1.5985 -26.954c0 -24.195 3.9101 -47.863 11.6663 -70.423
c6.8063 -19.787 10.194 -36.2553 10.194 -50.1669c0 -11.6378 -2.3708 -21.4864 -7.0941 -29.9918c-2.9993 -5.4042 -7.2422 -10.2964 -12.235 -14.0912c-3.1365 -2.38664 -4.3161 -4.52639 -4.3161 -7.80917c0 -3.28277 1.1796 -5.42252 4.3161 -7.80917
c12.7405 -9.69593 19.3218 -24.9977 19.3218 -44.4331c0 -5.5478 -0.5363 -11.4324 -1.6186 -17.6196c-1.9385 -11.0554 -3.996 -18.7091 -9.0345 -33.605c-5.834 -17.255 -9.4368 -35.525 -10.653 -54.088c-0.3841 -5.852 -0.4206 -6.968 -0.4206 -14.494
c0 -7.708 0.0365 -8.87 0.4663 -15.225c2.8622 -42.703 17.8953 -87.611 46.5533 -139.12c2.0849 -3.74 2.9079 -4.691 4.9653 -5.724c1.3656 -0.682 2.7769 -0.996 4.1452 -0.996c4.743 0 8.96763 3.769 8.96763 9.042c0 2.195 -0.21032 2.817 -2.23119 6.493
c-12.7209 23.184 -19.2482 50.991 -19.2482 81.681c0 5.732 0.2278 11.565 0.6855 17.488c2.2129 28.594 9.574 61.486 21.4432 95.877c1.96601 5.679 2.1489 6.273 2.98102 9.446l0.539509 2.085v22.3212v22.321l-0.539509 2.0666
c-6.04433 23.0252 -21.1232 44.0295 -45.5291 63.4153c-0.5578 0.448065 -1.0242 0.841266 -1.0242 0.877843c0 0.036577 0.4664 0.429779 1.0242 0.877846c24.4059 19.3858 39.4848 40.3901 45.5291 63.4153l0.539509 2.0666v22.321v22.3214l-0.539509 2.085
c-0.667531 2.56 -1.0333 3.776 -1.81056 6.016c-9.08023 26.299 -14.9691 48.227 -18.956 70.64c-2.9109 16.332 -4.3629 31.908 -4.3629 46.668c0 31.098 6.4446 58.578 19.268 81.899c0.51208 0.933 1.08816 2.003 1.28019 2.378
c0.67659 1.349 0.99256 2.759 0.99256 4.134c0 4.035 -2.71802 7.775 -7.02779 8.805c-0.4516 0.106 -1.7366 0.201 -2.5056 0.201c-0.2274 0 -0.4097 -0.008 -0.512 -0.027z" />
    <glyph glyph-name="brace37" unicode="&#xe125;" 
d="M-14.5469 335.633c-2.7712 -0.506 -4.9441 -1.896 -6.3067 -4.041c-0.6813 -1.068 -4.7047 -8.406 -7.3379 -13.396c-12.4108 -23.469 -22.2254 -46.311 -28.928 -67.386c-8.4805 -26.625 -12.7208 -52.49 -12.7208 -77.68c0 -21.438 3.071 -42.387 9.213 -62.899
c0.6905 -2.33 1.6848 -5.359 3.4802 -10.6528c6.1847 -18.2004 9.2904 -34.2512 9.2904 -47.8231c0 -6.9147 -0.8061 -13.186 -2.4221 -18.7703c-3.1487 -10.8825 -8.8754 -19.4265 -17.2721 -25.7332c-2.8817 -2.17283 -4.0326 -4.34565 -4.0326 -7.61409
c0 -3.23162 1.1877 -5.49651 3.959 -7.54965c8.3046 -6.14094 14.197 -14.9059 17.3457 -25.7976c1.6177 -5.5904 2.4249 -11.8597 2.4249 -18.7723c0 -13.5453 -3.0996 -29.5603 -9.2748 -47.7749c-2.5779 -7.587 -3.5723 -10.745 -4.7231 -14.961
c-5.2768 -19.283 -7.9389 -38.67 -7.9389 -58.466c0 -43.136 12.6405 -88.213 38.4136 -138.377c3.6828 -7.163 9.3542 -17.687 10.5235 -19.519c1.7425 -2.729 4.6598 -4.086 7.5794 -4.086c3.0194 0 6.04125 1.451 7.76849 4.335
c0.90227 1.519 1.22451 2.734 1.22451 4.677c0 2.228 -0.20255 2.845 -1.96107 6.039c-13.0316 23.706 -19.5501 51.112 -19.5501 82.51c0 33.464 7.4046 71.463 22.2201 114.352c1.64803 4.778 2.34775 6.997 3.02906 9.639l0.543206 2.118v22.3083v22.3083
l-0.368275 1.4823c-5.8832 23.3763 -21.1942 44.8559 -46.108 64.6507c-0.5617 0.451133 -1.0312 0.847029 -1.0312 0.883857c0 0.02762 0.5892 0.524792 1.3074 1.10482c25.1163 20.1999 39.9578 41.0719 45.8318 64.4298l0.368275 1.4823v22.3082v22.3084l-0.543206 2.118
c-0.681314 2.642 -1.38103 4.861 -3.03827 9.667c-7.82582 22.621 -13.9484 45.638 -17.7232 66.612c-3.0785 17.075 -4.6225 33.152 -4.6225 48.312c0 31.178 6.5305 58.478 19.6757 82.619c1.80455 3.323 1.97027 3.83 1.97027 6.067
c0 4.309 -2.59634 7.651 -6.8131 8.792c-0.4112 0.112 -1.8878 0.208 -2.801 0.208c-0.2933 0 -0.5285 -0.01 -0.6516 -0.033z" />
    <glyph glyph-name="brace38" unicode="&#xe126;" 
d="M-14.4148 337.862c-3.0961 -0.343 -5.4044 -2.03 -7.2583 -5.293c-11.124 -19.634 -22.1367 -42.781 -29.358 -61.757c-11.7172 -30.776 -17.5573 -57.344 -19.0683 -86.859c-0.0834 -1.571 -0.1251 -5.613 -0.1251 -9.645c0 -4.033 0.0417 -8.056 0.1251 -9.59
c0.1205 -2.244 0.4357 -7.221 0.5284 -8.297c0.5933 -6.841 0.9641 -9.882 2.0023 -16.639c1.9282 -12.524 5.0521 -24.983 9.3812 -37.516c6.6916 -19.3276 10.0388 -35.96 10.0388 -50.0791c0 -15.4941 -4.0309 -27.9614 -12.0967 -37.6423
c-2.2897 -2.7532 -4.5052 -4.82038 -8.4357 -7.87019c-2.2433 -1.74739 -3.365 -4.40091 -3.365 -7.05444c0 -2.65352 1.1217 -5.30704 3.365 -7.05443c5.46 -4.24564 8.3986 -7.30474 11.5318 -12.0416c6.0174 -9.084 9.0156 -20.1808 9.0156 -33.4724
c0 -6.9183 -0.8123 -14.4312 -2.4339 -22.5645c-1.9003 -9.5295 -3.8192 -16.3707 -8.3151 -29.617c-7.5325 -22.217 -11.3152 -45.559 -11.3152 -69.528c0 -15.646 1.6119 -31.558 4.8447 -47.598c6.6281 -32.909 20.5144 -68.422 41.9188 -107.161
c2.7531 -4.978 3.059 -5.451 4.3846 -6.498c1.7664 -1.416 3.728 -2.039 5.6289 -2.039c4.74732 0 9.1156 3.883 9.1156 8.984c0 0.853 -0.12221 1.74 -0.3853 2.649c-0.24101 0.816 -0.54692 1.437 -2.35456 4.784c-2.21552 4.088 -4.82964 9.677 -6.72074 14.368
c-8.2076 20.303 -12.3327 42.485 -12.3327 67.231c0 34.141 7.8526 73.163 23.6699 118.863c0.7416 2.142 1.1124 3.393 1.83545 6.118l0.593277 2.272v22.3586v22.3499l-0.426418 1.6593c-6.02547 23.4993 -20.431 43.884 -45.3208 64.1203
c-1.168 0.95481 -2.1321 1.77056 -2.1321 1.81691c0 0.046349 0.9641 0.862105 2.1321 1.81691c24.8898 20.2363 39.2953 40.6209 45.3208 64.1202l0.426418 1.6594v22.3498v22.3587l-0.593277 2.272c-0.723053 2.734 -1.09385 3.976 -1.83545 6.118
c-14.8598 42.892 -22.4982 79.156 -23.6199 112.073c-0.0831 2.441 -0.1245 4.869 -0.1245 7.283c0 30.432 6.58 58.659 19.1279 81.848c1.80764 3.346 2.11355 3.968 2.35456 4.783c0.25179 0.872 0.3712 1.743 0.3712 2.595c0 4.508 -3.34879 8.46 -8.1209 8.974
c-0.486 0.055 -0.7183 0.083 -0.952 0.083c-0.2433 0 -0.4882 -0.031 -1.0225 -0.092z" />
    <glyph glyph-name="brace39" unicode="&#xe127;" 
d="M-14.9522 340.063c-2.6693 -0.448 -4.9 -2.007 -6.356 -4.434c-0.5881 -0.989 -3.0148 -5.376 -4.9374 -8.96c-30.1706 -55.979 -44.4792 -104.3 -44.4792 -151.046c0 -6.862 0.3083 -13.69 0.92 -20.503c1.484 -16.576 5.1707 -34.113 10.4068 -49.607
c4.5174 -13.3187 6.1227 -18.9001 8.0547 -27.9722c1.3441 -6.2627 2.1467 -11.6388 2.6881 -17.9949c0.1133 -1.3444 0.1754 -4.6247 0.1754 -7.643c0 -2.4507 -0.0409 -4.7286 -0.1288 -5.6571c-1.596 -17.2202 -8.1294 -30.2497 -19.4322 -38.7338
c-1.288 -0.96134 -1.876 -1.48401 -2.38 -2.10002c-1.3907 -1.69869 -2.086 -3.74271 -2.086 -5.78674s0.6953 -4.08805 2.086 -5.78674c0.504 -0.61601 1.092 -1.13868 2.38 -2.10002c11.3121 -8.49348 17.8269 -21.4763 19.4322 -38.7338
c0.0879 -0.9285 0.1288 -3.2046 0.1288 -5.654c0 -3.0168 -0.0621 -6.2966 -0.1754 -7.6462c-0.5414 -6.356 -1.344 -11.7321 -2.6881 -17.9948c-1.932 -9.0441 -3.5373 -14.6442 -8.0081 -27.8327c-5.908 -17.472 -9.5947 -36.241 -10.8361 -55.254
c-0.3733 -5.814 -0.42 -7.242 -0.42 -14.42c0 -46.91 14.0002 -94.51 44.3619 -150.875c5.0027 -9.287 5.6094 -10.285 7.0187 -11.433c1.749 -1.431 3.7767 -2.086 5.7608 -2.086c4.18848 0 8.18237 2.918 8.94871 7.611c0.08932 0.549 0.13694 1.058 0.13694 1.554
c0 1.629 -0.51379 3.113 -1.75162 5.381c-12.2641 22.409 -18.6015 46.116 -20.0202 74.854c-0.0793 1.587 -0.119 5.362 -0.119 9.157c0 3.795 0.0397 7.611 0.119 9.277c1.5307 32.751 8.6988 66.668 22.7923 107.894c1.75469 5.124 1.99736 5.899 2.80003 8.988
l0.560007 2.175v22.3628v22.363l-0.476006 1.8293c-6.17873 23.9216 -21.1776 44.9499 -46.4992 65.1941c-0.756 0.606675 -1.372 1.13868 -1.372 1.17602c0 0.037334 0.616 0.56934 1.3813 1.17601c25.2376 20.179 40.3018 41.2632 46.4432 65.0075l0.522673 2.0253
v22.3536v22.3634l-0.560007 2.174c-0.802673 3.09 -1.04534 3.874 -2.75336 8.848c-15.39 44.947 -23.076 83.743 -23.076 117.773c0 31.909 6.7574 59.627 20.2573 84.296c1.08268 1.988 1.40001 2.782 1.60535 4.06c0.08197 0.502 0.12144 0.998 0.12144 1.486
c0 4.949 -4.06767 9.003 -9.01622 9.003c-0.5023 0 -1.0136 -0.042 -1.5307 -0.128z" />
    <glyph glyph-name="brace40" unicode="&#xe128;" 
d="M-15.0546 342.351c-3.6367 -0.658 -4.9712 -1.926 -8.1757 -7.706c-30.532 -55.19 -45.1637 -100.486 -47.7385 -147.82c-0.0846 -1.508 -0.1269 -5.805 -0.1269 -10.102c0 -4.297 0.0423 -8.594 0.1269 -10.102c1.0055 -18.429 3.2608 -32.637 7.8656 -49.477
c1.2592 -4.624 2.1895 -7.565 4.8584 -15.459c6.341 -18.7519 9.5138 -35.0583 9.5138 -48.9597c0 -20.2768 -6.7502 -35.437 -20.2644 -45.606c-2.7311 -2.05064 -3.8719 -4.23996 -3.8719 -7.45749c0 -0.02633 0 -0.052729 0.0002 -0.079198
c0.0094 -3.21389 1.1465 -5.39408 3.8717 -7.44271c13.3946 -10.0731 20.319 -25.7123 20.319 -45.6932c0 -2.5182 -0.1099 -5.1053 -0.3308 -7.759c-1.0337 -12.4233 -4.0033 -25.6172 -9.2376 -41.1137c-2.6501 -7.828 -3.5992 -10.854 -4.8115 -15.27
c-5.3517 -19.561 -8.0508 -39.27 -8.0508 -59.41c0 -45.462 13.7519 -93.124 41.7873 -146.252c3.3079 -6.268 7.5743 -14.049 8.3261 -15.195c1.6779 -2.543 4.5377 -3.867 7.4273 -3.867c2.3214 0 4.66195 0.855 6.42441 2.617c1.81369 1.814 2.57487 3.693 2.57487 6.39
c0 2.378 -0.10337 2.679 -2.23657 6.578c-6.75671 12.349 -12.085 26.745 -15.3647 41.537c-2.9261 13.209 -4.3997 27.162 -4.3997 42.036c0 34.281 7.8271 73.456 23.7395 119.692c1.07129 3.101 1.54116 4.671 2.30235 7.621l0.526252 2.03v22.3566v22.3563
l-0.648418 2.4903c-6.18346 23.672 -21.2944 44.7878 -46.5075 64.9734c-0.8834 0.7142 -1.6164 1.33442 -1.6164 1.37201c0 0.03759 0.921 0.808173 2.0486 1.71972c25.0064 20.1479 39.92 41.0664 46.0753 64.6256l0.648418 2.4903v22.3563v22.3565l-0.526252 2.03
c-0.798778 3.129 -1.24985 4.576 -2.75343 8.965c-15.5856 45.412 -23.335 84.53 -23.335 118.824c0 25.133 4.1623 47.674 12.4529 68.202c2.246 5.573 4.94299 11.286 7.63064 16.163c1.82308 3.308 1.96404 3.731 1.96404 6.062c0 4.266 -2.49029 7.555 -6.61578 8.739
c-0.5351 0.155 -1.7782 0.257 -2.7668 0.257c-0.4522 0 -0.8512 -0.022 -1.1049 -0.069z" />
    <glyph glyph-name="brace41" unicode="&#xe129;" 
d="M-14.9022 344.631c-3.2643 -0.52 -5.2134 -2.043 -7.2192 -5.62c-0.5488 -0.965 -1.372 -2.441 -1.8356 -3.274c-9.5563 -17.021 -19.9926 -38.982 -26.7766 -56.297c-12.8301 -32.747 -19.2262 -61.274 -20.7211 -92.346c-0.0805 -1.632 -0.1207 -5.436 -0.1207 -9.23
c0 -3.794 0.0402 -7.579 0.1207 -9.173c1.1543 -23.512 4.674 -42.104 12.1393 -64.169c6.9439 -20.5405 10.3746 -37.3091 10.3746 -51.4595c0 -9.7586 -1.6316 -18.272 -4.8679 -25.9184c-3.5008 -8.2601 -8.2127 -14.2683 -15.9145 -20.2954
c-2.4412 -1.91126 -3.6617 -4.57473 -3.6617 -7.2382c0 -2.66346 1.2205 -5.32693 3.6617 -7.23819c6.7745 -5.29855 10.7768 -10.0295 14.325 -16.908c4.2802 -8.3291 6.4106 -17.9948 6.4106 -29.2868c0 -7.1795 -0.8612 -15.0164 -2.5786 -23.5852
c-1.8167 -9.0737 -3.5766 -15.3941 -7.664 -27.6283c-7.0395 -21.043 -10.493 -38.112 -11.8271 -58.378c-0.3407 -5.261 -0.388 -6.624 -0.4447 -12.679c-0.0064 -0.706 -0.0096 -1.412 -0.0096 -2.118c0 -47.615 14.472 -96.535 45.4257 -153.669
c1.1733 -2.167 1.7031 -3.132 3.9645 -7.153c1.4287 -2.545 2.3938 -3.614 4.1347 -4.579c1.3851 -0.768 2.8718 -1.126 4.3325 -1.126c3.79775 0 7.42053 2.419 8.63004 6.348c0.30147 0.974 0.4591 1.851 0.4591 2.72c0 1.612 -0.54307 3.199 -1.71751 5.332
c-13.6457 24.817 -20.476 52.91 -20.476 85.238c0 34.672 7.8569 74.216 23.5889 119.816c1.32464 3.851 1.79772 5.403 2.60197 8.516l0.567702 2.223v22.3109v22.3106l-0.38793 1.5328c-6.1501 24.5437 -21.374 46.0028 -47.4221 66.8091
c-0.7663 0.61501 -1.3908 1.15433 -1.3908 1.19217c0 0.037847 0.738 0.662319 1.6369 1.38141c18.5733 14.8737 31.6683 30.1733 39.6161 46.2676c3.47244 7.049 5.78109 13.2559 7.55989 20.3522l0.38793 1.5328v22.3106v22.3108l-0.567702 2.223
c-0.823168 3.198 -1.26787 4.637 -2.58304 8.469c-15.7879 45.718 -23.6732 85.454 -23.6732 120.297c0 32.479 6.8517 60.706 20.5413 85.561c1.17444 2.133 1.71751 3.72 1.71751 5.332c0 0.869 -0.15763 1.746 -0.4591 2.72c-1.16159 3.781 -4.74693 6.37 -8.55004 6.37
c-0.4409 0 -0.8847 -0.035 -1.328 -0.107z" />
    <glyph glyph-name="brace42" unicode="&#xe12a;" 
d="M-15.2138 346.902c-2.1529 -0.391 -4.1345 -1.534 -5.4682 -3.163c-0.6097 -0.743 -0.6668 -0.829 -5.6587 -9.888c-7.4497 -13.49 -16.938 -33.391 -22.8159 -47.823c-13.9658 -34.324 -20.9201 -63.923 -22.692 -96.551c-0.0857 -1.534 -0.1286 -5.99 -0.1286 -10.436
c0 -4.447 0.0429 -8.884 0.1286 -10.379c0.4192 -7.479 0.9241 -13.29 1.6481 -18.72c2.0958 -15.814 5.4015 -29.875 10.4981 -44.641c6.953 -20.1497 10.4331 -37.3189 10.4331 -51.8558c0 -15.9369 -4.1826 -28.7101 -12.5575 -38.7788
c-1.8481 -2.2196 -4.9251 -5.20142 -6.8685 -6.6685c-2.4388 -1.8386 -3.22 -2.61977 -3.9821 -4.01064c-0.7574 -1.3861 -1.136 -2.87937 -1.136 -4.37265c0 -1.49327 0.3786 -2.98654 1.136 -4.37264c0.7621 -1.39087 1.5433 -2.17204 3.9821 -4.01065
c2.7055 -2.03862 6.2588 -5.69682 8.6309 -8.90722c7.1866 -9.6946 10.778 -21.8805 10.778 -36.7212c0 -14.0782 -3.2317 -30.5453 -9.6919 -49.5409c-3.2295 -9.479 -4.2393 -12.794 -6.1732 -20.387c-3.6391 -14.27 -5.6778 -27.855 -6.5828 -43.917
c-0.2112 -3.77 -0.3165 -7.588 -0.3165 -11.449c0 -29.219 6.0273 -60.895 17.7404 -92.98c7.0782 -19.386 18.71 -44.755 28.5413 -62.236c0.3811 -0.677 1.5624 -2.801 2.6103 -4.706c2.0577 -3.716 2.534 -4.402 3.6962 -5.354c1.7285 -1.42 3.7329 -2.07 5.698 -2.07
c4.15425 0 8.13239 2.906 8.95373 7.595c0.09306 0.531 0.14177 1.035 0.14177 1.531c0 1.587 -0.49808 3.094 -1.63742 5.147c-13.7238 24.72 -20.7181 53.836 -20.7181 86.074c0 2.896 0.0564 5.817 0.1695 8.762c1.2194 32 9.0787 69.591 22.9111 109.697
c1.85766 5.392 2.43878 7.26 3.27711 10.499l0.666853 2.543v22.3016v22.3015l-0.438217 1.7338c-6.13504 24.5402 -21.3202 45.9938 -47.318 66.8853c-1.0288 0.8288 -1.8767 1.54329 -1.8767 1.58139c0 0.038106 0.8479 0.752591 1.8863 1.5814
c26.0834 20.9582 41.1448 42.288 47.356 67.0758l0.390585 1.5433v22.3015v22.3014l-0.666853 2.544c-0.828807 3.22 -1.41945 5.087 -3.26758 10.46c-15.3842 44.629 -23.0731 84.12 -23.0731 118.886c0 32.834 6.8577 61.454 20.5676 86.209
c1.21514 2.187 1.78317 3.851 1.78317 5.509c0 0.941 -0.18323 1.881 -0.5352 2.912c-1.23526 3.639 -4.79051 6.099 -8.52128 6.099c-0.4988 0 -1.0007 -0.044 -1.5006 -0.135z" />
    <glyph glyph-name="brace43" unicode="&#xe12b;" 
d="M-15.2987 349.227c-3.194 -0.537 -5.0644 -2.1 -7.3089 -6.138c-5.189 -9.324 -8.0282 -14.685 -12.143 -22.925c-23.9696 -48.006 -35.5179 -88.061 -37.5897 -130.398c-0.0816 -1.664 -0.1223 -5.585 -0.1223 -9.497s0.0407 -7.816 0.1223 -9.447
c1.1893 -23.72 4.9493 -43.517 12.3636 -65.079c6.9496 -20.1876 10.4249 -37.366 10.4249 -51.9254c0 -14.9998 -3.6887 -27.2195 -11.0675 -37.0855c-2.4267 -3.242 -5.7838 -6.6758 -8.6325 -8.82436c-3.8079 -2.8679 -4.9397 -4.75746 -4.9397 -8.29679
c0 -3.53932 1.1318 -5.42888 4.9397 -8.29679c10.148 -7.64456 17.2266 -20.8619 19.0778 -35.6331c0.4005 -3.163 0.5974 -6.6658 0.5974 -10.3115c0 -5.7847 -0.4958 -11.9294 -1.4607 -17.6482c-1.9087 -11.3373 -4.5656 -21.5525 -8.8818 -34.0984
c-6.8197 -19.797 -10.666 -38.731 -12.0184 -59.133c-0.3933 -6.014 -0.4316 -7.27 -0.4316 -15.106c0 -7.626 0.0383 -9.247 0.3836 -14.628c2.5418 -39.575 14.3012 -79.025 37.2349 -124.931c3.6832 -7.386 5.4193 -10.685 9.467 -18.08
c3.2995 -6.005 3.9134 -7.079 4.4985 -7.789c1.8759 -2.289 4.3907 -3.312 6.8676 -3.312c4.60223 0 9.07371 3.532 9.07371 9.038c0 2.139 -0.21102 2.801 -1.71691 5.563c-13.7802 25.137 -20.6778 53.561 -20.6778 86.262c0 35.355 8.0629 75.709 24.2075 122.309
c1.10305 3.185 1.46753 4.374 2.32119 7.635l0.709783 2.743v22.2723v22.2718l-0.441217 1.7457c-3.6736 14.704 -10.5413 28.2475 -20.9003 41.2634c-6.8676 8.6325 -16.3825 17.9172 -27.317 26.6552c-0.7769 0.623461 -1.41 1.17019 -1.41 1.20855
c0 0.038366 0.6331 0.585091 1.4196 1.20855c10.9249 8.73801 20.4398 18.0227 27.3074 26.6552c10.359 13.0159 17.2267 26.569 20.9003 41.2634l0.441217 1.7457v22.2718v22.2714l-0.709783 2.744c-0.892027 3.424 -1.19896 4.402 -2.67608 8.69
c-15.9379 46.136 -23.8994 86.393 -23.8994 121.706c0 32.735 6.8418 61.222 20.5136 86.203c1.74569 3.194 1.92793 3.75 1.92793 5.937c0 5.088 -4.08578 9.049 -8.93851 9.049c-0.4986 0 -1.0052 -0.042 -1.5164 -0.129z" />
    <glyph glyph-name="brace44" unicode="&#xe12c;" 
d="M-15.2585 351.557c-2.2598 -0.396 -4.2492 -1.526 -5.6206 -3.207c-0.5601 -0.676 -2.057 -3.303 -5.6881 -9.976c-31.1716 -57.304 -46.4007 -108.234 -46.4007 -156.779c0 -20.112 2.6139 -39.814 7.7908 -59.39c1.5162 -5.727 2.9841 -10.41 5.8813 -18.793
c6.0055 -17.3718 9.4588 -35.6482 9.4588 -49.6812c0 -1.3118 -0.0302 -2.5866 -0.0913 -3.8201c-0.8788 -17.8371 -7.9383 -32.9411 -19.5463 -41.8451c-2.0087 -1.53551 -2.6558 -2.09563 -3.2063 -2.79096c-1.3554 -1.68296 -2.0152 -3.68618 -2.0152 -5.67441
c0 -2.64382 1.1666 -5.26112 3.4156 -7.06357c0.4538 -0.36698 1.2747 -1.00436 1.8059 -1.40996c7.8514 -6.01649 13.9258 -15.3938 17.1224 -26.4127c1.6757 -5.7719 2.5105 -12.2844 2.5105 -19.4814c0 -14.454 -3.3672 -31.6689 -10.0529 -51.1906
c-5.2149 -15.249 -8.1604 -26.944 -10.3043 -40.995c-1.7866 -11.681 -2.6867 -23.391 -2.6867 -35.21c0 -40.187 10.407 -81.629 31.7648 -127.419c3.776 -8.093 10.8162 -22.174 12.8249 -25.641c0.2028 -0.347 1.1203 -2.018 2.0377 -3.718
c4.6162 -8.556 5.2343 -9.541 6.5766 -10.661c1.7195 -1.416 3.746 -2.074 5.7395 -2.074c3.7837 0 7.4485 2.368 8.66921 6.41c0.27804 0.924 0.42129 1.783 0.42129 2.632c0 1.6 -0.50789 3.17 -1.58016 5.094c-14.0252 25.222 -21.0223 54.03 -21.0223 87.181
c0 26.837 4.5857 56.52 13.7407 89.451c2.9745 10.7 8.16045 27.146 11.1542 35.346c0.35732 0.994 1.16853 3.795 1.84454 6.373l0.71464 2.753v22.2501v22.2601l-0.666354 2.6074c-6.37382 24.8386 -21.8351 46.4613 -48.412 67.6977
c-0.7919 0.627723 -1.4293 1.17819 -1.4293 1.21682c0 0.038629 0.6374 0.589095 1.4293 1.21682c14.5535 11.637 25.814 23.4189 33.8102 35.4133c6.84703 10.2657 11.7143 21.0336 14.6018 32.2843l0.666354 2.6075v22.2601v22.2508l-0.676011 2.607
c-0.898129 3.467 -1.39065 5.07 -2.53021 8.354c-16.197 46.475 -24.2908 87.333 -24.2908 123.192c0 33.222 6.947 62.154 20.8335 87.289c1.24986 2.261 1.82166 3.884 1.82166 5.525c0 0.881 -0.16527 1.768 -0.47929 2.761
c-1.18669 3.749 -4.77773 6.319 -8.54343 6.319c-0.4634 0 -0.9294 -0.039 -1.3939 -0.119z" />
    <glyph glyph-name="brace45" unicode="&#xe12d;" 
d="M-15.3629 353.911c-3.4907 -0.554 -5.134 -2.022 -7.8954 -7.001c-32.34 -58.311 -47.5376 -105.352 -49.9782 -154.601c-0.0826 -1.648 -0.1239 -5.664 -0.1239 -9.667c0 -4.002 0.0413 -7.991 0.1239 -9.586c0.9821 -19.194 3.3838 -34.381 8.1871 -51.971
c1.2543 -4.57 2.2656 -7.769 4.9298 -15.655c6.6604 -19.6648 9.9912 -36.5547 9.9912 -50.9421c0 -15.2489 -3.7416 -27.6866 -11.2261 -37.6376c-2.4114 -3.1989 -5.6298 -6.5049 -8.401 -8.64404c-2.9073 -2.23637 -3.5782 -2.92673 -4.3755 -4.48247
c-0.6806 -1.32818 -1.0087 -2.74505 -1.0087 -4.14341c0 -2.71699 1.2386 -5.36413 3.5368 -7.15515c0.4181 -0.3306 1.2154 -0.94317 1.7502 -1.36128c2.1683 -1.67245 4.8325 -4.26855 6.8161 -6.64105c8.6123 -10.2872 12.9097 -23.3943 12.9097 -39.7259
c0 -14.387 -3.3349 -31.2762 -9.9927 -50.945c-8.1968 -24.211 -11.6486 -41.859 -13.0099 -66.459c-0.1307 -2.409 -0.1932 -5.432 -0.1932 -8.725c0 -6.261 0.2262 -13.496 0.6405 -19.327c3.2184 -44.883 19.5537 -92.887 50.2309 -147.649
c1.4196 -2.538 2.4795 -3.666 4.3172 -4.609c1.3435 -0.686 2.7484 -1.003 4.119 -1.003c4.55179 0 8.72584 3.486 9.01729 8.47c0.015 0.25 0.02316 0.486 0.02316 0.715c0 1.695 -0.44931 2.936 -1.88033 5.567c-14.0736 25.792 -20.8354 54.165 -20.8354 87.475
c0 0.658 0.0027 1.318 0.008 1.98c0.0486 6.301 0.0972 7.74 0.3597 12.446c1.7891 31.212 9.7623 67.509 23.7737 108.318c1.61408 4.706 1.83772 5.426 2.81978 9.189l0.729253 2.819v22.2087v22.2179l-0.641743 2.4794
c-6.47577 25.2905 -22.7527 48.0627 -49.0253 68.6082c-0.7487 0.593122 -1.371 1.08901 -1.371 1.11818c0 0.029171 0.6223 0.534786 1.371 1.11819c26.2531 20.5164 42.5592 43.3371 49.035 68.6082l0.632019 2.4794v22.2179v22.208l-0.729253 2.82
c-0.982057 3.763 -1.2057 4.482 -2.81978 9.189c-16.1759 47.091 -24.2529 87.794 -24.2529 123.459c0 33.175 6.9881 61.991 20.9469 87.538c1.43688 2.626 1.88069 3.867 1.88069 5.557c0 0.232 -0.00831 0.471 -0.02352 0.724c-0.27477 4.76 -4.40348 8.51 -9.01299 8.51
c-0.4472 0 -0.8989 -0.036 -1.3521 -0.109z" />
    <glyph glyph-name="brace46" unicode="&#xe12e;" 
d="M-15.517 356.266c-1.9873 -0.313 -4.2586 -1.625 -5.5508 -3.211c-0.607 -0.744 -2.8293 -4.679 -6.4418 -11.415c-1.1454 -2.124 -2.3496 -4.376 -2.6922 -4.993c-5.2474 -9.623 -13.6471 -27.353 -18.8162 -39.747
c-15.1743 -36.369 -22.6929 -67.589 -24.6215 -102.255c-0.0882 -1.557 -0.1322 -6.18 -0.1322 -10.782c0 -4.603 0.044 -9.184 0.1322 -10.658c1.3999 -23.887 5.0907 -43.418 11.973 -63.487c7.5761 -22.0967 11.2967 -39.9263 11.2967 -54.9199
c0 -8.9343 -1.3211 -16.8617 -3.9347 -24.0848c-3.2307 -8.9186 -9.1633 -17.3281 -15.8988 -22.5265c-2.9761 -2.30062 -3.4362 -2.76075 -4.2782 -4.2586c-0.7293 -1.31674 -1.094 -2.83173 -1.094 -4.34671c0 -1.51499 0.3647 -3.02997 1.094 -4.34671
c0.842 -1.49786 1.3021 -1.95798 4.2782 -4.2586c3.3579 -2.58458 7.1858 -6.74528 9.8584 -10.7004c6.6263 -9.7891 9.9423 -21.5729 9.9423 -35.887c0 -15.0606 -3.6709 -32.9223 -11.0192 -54.2098c-8.258 -23.912 -12.3897 -48.542 -12.3897 -73.991
c0 -33.534 7.1736 -68.488 21.5335 -105.095c5.7271 -14.616 15.9086 -36.643 22.1545 -47.941c0.2937 -0.538 1.4979 -2.761 2.6629 -4.944c3.6026 -6.706 5.776 -10.563 6.3928 -11.317c1.7926 -2.201 4.3661 -3.265 6.932 -3.265c3.1513 0 6.29097 1.604 7.95838 4.675
c0.80277 1.468 1.03773 2.467 1.03773 4.327c0 2.193 -0.17622 2.751 -1.86008 5.825c-13.9842 25.5 -20.9813 54.869 -20.9813 88.026c0 8.138 0.4214 16.503 1.2645 25.096c2.8195 28.782 10.6612 62.459 22.5657 96.93c2.1244 6.167 2.38873 7.019 3.55373 11.552
l0.597183 2.3v22.1647v22.1643l-0.646133 2.4964c-6.5886 25.6789 -22.7419 48.3229 -49.3998 69.2243c-0.793 0.616764 -1.4391 1.14542 -1.4391 1.17479s0.6461 0.558024 1.4391 1.17479c26.6383 20.8916 42.821 43.565 49.3998 69.2243l0.646133 2.4964v22.1741v22.1639
l-0.773401 2.986c-0.920249 3.525 -1.27269 4.699 -2.1342 7.196c-16.7701 48.455 -25.142 90.204 -25.142 126.645c0 33.377 7.0234 62.302 21.0498 87.851c1.68386 3.074 1.86008 3.632 1.86008 5.825c0 5.1 -4.08077 9.056 -8.97601 9.056
c-0.4608 0 -0.9288 -0.035 -1.4013 -0.108z" />
    <glyph glyph-name="brace47" unicode="&#xe12f;" 
d="M-15.426 358.684c-3.5583 -0.503 -5.2339 -1.981 -8.053 -7.067c-2.7304 -4.929 -4.4553 -8.113 -8.3882 -15.545c-7.6785 -14.509 -17.1016 -35.405 -22.6904 -50.368c-12.1535 -32.498 -18.1465 -60.324 -19.5856 -90.979c-0.0838 -1.74 -0.1257 -5.67 -0.1257 -9.584
c0 -3.915 0.0419 -7.813 0.1257 -9.489c1.1927 -24.474 4.7412 -43.153 12.7351 -67.026c7.3151 -21.8514 10.7365 -38.5631 10.7365 -53.1306c0 -3.6678 -0.2169 -7.1997 -0.6431 -10.6435c-1.9024 -15.4457 -9.1866 -28.9792 -19.9503 -37.111
c-2.2276 -1.67567 -2.9078 -2.38536 -3.6963 -3.83432c-0.7294 -1.35531 -1.0941 -2.82645 -1.0941 -4.29758c0 -1.47113 0.3647 -2.94227 1.0941 -4.29759c0.7885 -1.44895 1.4687 -2.15864 3.6963 -3.83431c10.7538 -8.11215 18.0577 -21.6949 19.9503 -37.111
c0.4201 -3.408 0.633 -6.9183 0.633 -10.5673c0 -14.7568 -3.4815 -31.7817 -10.8152 -53.4827c-8.7717 -25.951 -12.7057 -49.372 -12.7057 -75.803c0 -0.775 0.0034 -1.552 0.0101 -2.332c0.0592 -6.328 0.0986 -7.649 0.4633 -13.307
c2.7303 -42.355 17.3283 -88.908 42.9758 -137.059c3.4105 -6.397 6.7126 -12.479 8.3882 -15.436c1.9356 -3.423 5.1807 -5.149 8.3617 -5.149c3.0394 0 6.02021 1.576 7.7444 4.755c0.75223 1.396 1.13427 2.697 1.13427 4.066c0 1.734 -0.6132 3.575 -1.86367 5.85
c-14.1515 25.821 -21.2361 54.982 -21.2361 88.558c0 36.162 8.2181 77.444 24.6761 125.187c1.39967 4.061 1.95165 5.905 2.89791 9.65l0.650552 2.553v22.0697v22.0596l-0.650552 2.5431c-6.50552 25.4898 -21.547 46.9383 -47.9929 68.4361
c-1.0251 0.83783 -2.1883 1.76437 -2.5825 2.06008c-0.4288 0.325276 -0.6432 0.458343 -0.6432 0.59141c0 0.133068 0.2144 0.266135 0.6432 0.591411c0.3942 0.295706 1.5574 1.22225 2.5825 2.06008c26.4459 21.488 41.4874 42.9463 47.9929 68.4361l0.650552 2.5431
v22.0596v22.0698l-0.650552 2.553c-0.926548 3.666 -1.54753 5.756 -2.8782 9.6c-11.7493 33.987 -19.4082 65.341 -22.7398 93.098c-1.3604 11.356 -2.0425 22.164 -2.0425 32.539c0 15.558 1.5341 30.144 4.6151 44.147c3.4697 15.742 9.1866 31.079 16.7074 44.8
c1.27944 2.325 1.86136 3.982 1.86136 5.638c0 0.857 -0.15596 1.713 -0.45183 2.661c-1.18677 3.792 -4.77263 6.365 -8.62963 6.365c-0.4037 0 -0.8102 -0.028 -1.2174 -0.086z" />
    <glyph glyph-name="brace48" unicode="&#xe130;" 
d="M-15.7399 361.021c-2.8482 -0.456 -5.0812 -2.143 -6.7584 -5.111c-21.5455 -37.99 -37.0571 -75.682 -45.0759 -109.524c-4.7755 -20.156 -7.1572 -40.283 -7.1572 -60.028c0 -25.596 4.0024 -50.551 11.9804 -74.098c4.5354 -13.4075 6.3217 -19.5109 8.2073 -28.0557
c1.836 -8.2966 2.749 -14.3405 3.3544 -22.012c0.0844 -1.0966 0.1266 -3.9126 0.1266 -6.6839c0 -2.7714 -0.0422 -5.4981 -0.1266 -6.4161c-1.7169 -18.3598 -8.5845 -32.3034 -20.3149 -41.2154c-1.8658 -1.41917 -2.3421 -1.83599 -2.9475 -2.57038
c-1.3696 -1.67224 -2.0543 -3.70423 -2.0543 -5.73621c0 -2.032 0.6847 -4.06398 2.0543 -5.73621c0.6054 -0.7344 1.0817 -1.15121 2.9475 -2.57038c11.7304 -8.91194 18.598 -22.8555 20.3149 -41.2154c0.0844 -0.918 0.1266 -3.6446 0.1266 -6.416
c0 -2.7713 -0.0422 -5.5873 -0.1266 -6.684c-1.2008 -15.3627 -4.2575 -28.6215 -11.4228 -49.6213c-8.0231 -23.515 -12.0523 -48.486 -12.0523 -74.114c0 -18.404 2.0778 -37.147 6.2466 -55.933c7.731 -34.795 23.5304 -73.777 45.9195 -113.256
c2.0047 -3.543 4.5652 -5.15 8.2074 -5.15c5.37055 0 8.96925 4.052 8.96925 8.815c0 1.654 -0.43361 3.393 -1.37722 5.078c-8.68373 15.562 -15.0451 33.505 -18.4988 52.252c-2.1917 11.877 -3.2915 24.409 -3.2915 37.656c0 36.12 8.1763 77.559 24.6882 125.548
c1.57796 4.585 2.18334 6.59 3.15591 10.45l0.645076 2.58v21.943v21.9524l-0.645076 2.5704c-6.53015 26.0611 -22.6074 48.7479 -49.7999 70.2636c-1.0619 0.84357 -1.9352 1.55811 -1.9352 1.58788c0 0.029772 0.8733 0.744318 1.9352 1.58787
c27.1925 21.5158 43.2698 44.2026 49.7999 70.2637l0.645076 2.5704v21.9524v21.9423l-0.645076 2.581c-0.972574 3.87 -1.57795 5.855 -3.20553 10.599c-16.4579 47.932 -24.6795 89.566 -24.6795 126.019c0 34.305 7.2813 64.022 21.8312 90.081
c0.95889 1.717 1.43985 3.416 1.43985 5.064c0 1.439 -0.36681 2.839 -1.10242 4.176c-1.59684 2.897 -4.78176 4.719 -8.03716 4.719c-0.447 0 -0.8955 -0.034 -1.3413 -0.105z" />
    <glyph glyph-name="brace49" unicode="&#xe131;" 
d="M-15.6876 363.44c-3.6071 -0.609 -5.1659 -1.958 -7.8638 -6.824c-16.8367 -30.346 -28.8472 -57.125 -37.3405 -83.255c-9.5519 -29.408 -14.3285 -58 -14.3285 -85.788c0 -26.425 4.3195 -52.122 12.9596 -77.103c7.3084 -21.1331 10.9659 -39.194 10.9659 -54.5033
c0 -16.7568 -4.3819 -30.217 -13.1542 -40.8012c-2.0583 -2.478 -5.3257 -5.62553 -7.7438 -7.46407c-2.2582 -1.69866 -2.8678 -2.32816 -3.6671 -3.77702c-0.7444 -1.35892 -1.1167 -2.85274 -1.1167 -4.34656c0 -1.49382 0.3723 -2.98764 1.1167 -4.34656
c0.8093 -1.46884 1.3789 -2.04839 3.8169 -3.89692c2.3382 -1.77857 5.5557 -4.88617 7.5541 -7.29427c8.8041 -10.6171 13.2011 -24.0895 13.2011 -40.8627c0 -15.3034 -3.6601 -33.3545 -10.9729 -54.4914c-7.514 -21.713 -11.4509 -42.457 -12.6999 -66.818
c-0.085 -1.653 -0.1274 -5.858 -0.1274 -10.057c0 -4.199 0.0424 -8.393 0.1274 -10.027c2.2382 -43.146 13.3094 -82.325 37.0307 -131.046c5.056 -10.382 15.198 -29.377 16.5769 -31.026c1.8438 -2.226 4.3997 -3.265 6.9286 -3.265
c3.7477 0 7.43597 2.282 8.65906 6.363c0.29574 0.992 0.45502 1.85 0.45502 2.698c0 1.644 -0.59912 3.253 -1.96383 5.745c-14.3156 26.199 -21.4862 55.538 -21.4862 89.418c0 36.685 8.407 78.695 25.2532 127.81c1.43886 4.197 1.67868 4.967 2.71785 9.063
l0.789376 3.118v21.8726v21.8727l-0.549566 2.2182c-6.60477 26.629 -22.6321 49.391 -50.1104 71.1738c-1.199 0.94924 -2.1782 1.74861 -2.1782 1.77859c-0.0001 0.000198 -0.0001 0.000421 -0.0001 0.000669c0 0.037353 0.7455 0.643505 1.6488 1.34827
c27.6281 21.6928 44.0052 44.8445 50.6399 71.6034l0.549566 2.2182v21.8528v21.8528l-0.499605 2.038c-1.20904 4.856 -1.46883 5.726 -3.66711 12.131c-16.4127 47.889 -24.6129 89.573 -24.6129 126.127c0 34.415 7.2685 64.283 21.7951 90.501
c1.13674 2.047 1.66119 3.59 1.66119 5.186c0 0.859 -0.15195 1.733 -0.44215 2.708c-1.13499 3.772 -4.77986 6.408 -8.57536 6.408c-0.4481 0 -0.8984 -0.037 -1.3468 -0.113z" />
    <glyph glyph-name="brace50" unicode="&#xe132;" 
d="M-15.8451 365.88c-3.1892 -0.463 -5.161 -2.083 -7.3643 -6.027c-33.5011 -59.949 -49.5676 -109.235 -52.2638 -160.312c-0.0892 -1.636 -0.132 -6.007 -0.132 -10.4c0 -4.521 0.0453 -9.064 0.132 -10.677c1.0664 -19.386 3.2495 -33.531 7.8773 -51.056
c1.4286 -5.403 2.2636 -8.099 5.2717 -17.103c6.3883 -19.1147 9.2254 -31.6198 10.4829 -46.3281c0.1222 -1.4435 0.1892 -5.0137 0.1892 -8.2887c0 -2.6592 -0.0442 -5.1239 -0.1389 -6.0977c-0.8249 -8.7324 -2.2535 -14.7183 -5.1006 -21.3783
c-3.3702 -7.8874 -9.1852 -15.493 -15.5031 -20.2919c-1.9014 -1.43864 -2.3944 -1.87123 -2.9678 -2.57546c-1.3783 -1.69015 -2.0674 -3.72235 -2.0674 -5.75456c0 -2.0322 0.6891 -4.0644 2.0674 -5.75455c0.5734 -0.70423 1.0664 -1.13682 2.9678 -2.57546
c4.7385 -3.60161 9.5675 -9.20531 12.7566 -14.8089c5.377 -9.4391 8.0635 -20.4764 8.0635 -33.5593c0 -12.7417 -2.5482 -27.4236 -7.641 -44.4591c-0.4124 -1.378 -1.8813 -5.885 -3.2595 -10.01c-7.5655 -22.626 -11.1973 -40.564 -12.6258 -62.324
c-0.3412 -5.213 -0.5128 -10.444 -0.5128 -15.701c0 -52.089 16.8473 -106.645 52.4043 -170.266c1.3079 -2.344 1.9417 -3.199 2.9779 -4.044c1.7377 -1.417 3.7433 -2.063 5.7057 -2.063c4.3205 0 8.43157 3.13 9.0127 8.049c0.04725 0.394 0.07283 0.765 0.07283 1.126
c0 1.639 -0.52628 3.084 -1.94407 5.664c-14.4027 26.282 -21.6177 56.513 -21.6177 90.568c0 7.621 0.3614 15.434 1.0844 23.437c2.5251 27.897 9.2153 58.461 20.2918 92.656c1.27767 3.944 1.92154 5.845 4.4467 13.23c0.94568 2.746 1.4487 4.507 2.42456 8.33
l0.754531 2.998v21.8107v21.811l-0.74447 2.9577c-6.41854 25.3925 -20.9357 46.62 -46.4589 67.9581c-1.8411 1.53925 -5.0302 4.11471 -5.8652 4.74852l-0.3019 0.221329l0.3019 0.221329c0.835 0.633806 4.0241 3.20927 5.8652 4.74852
c25.5232 21.3381 40.0404 42.5655 46.4589 67.958l0.74447 2.9578v21.8109v21.8111l-0.754531 2.998c-0.975859 3.843 -1.48894 5.593 -2.42456 8.33c-17.2864 50.237 -25.9117 93.111 -25.9117 130.468c0 34.237 7.2447 63.839 21.7065 90.227
c1.41779 2.58 1.94407 4.026 1.94407 5.67c0 0.362 -0.02558 0.735 -0.07283 1.131c-0.55078 4.663 -4.46863 8.053 -9.0099 8.053c-0.4358 0 -0.8773 -0.031 -1.3221 -0.095z" />
    <glyph glyph-name="brace51" unicode="&#xe133;" 
d="M-16.0041 368.319c-3.0995 -0.415 -5.1557 -2.157 -7.4652 -6.32c-35.7955 -64.366 -52.6816 -119.074 -52.6816 -170.894c0 -1.937 0.0236 -3.87 0.0707 -5.8c0.628 -25.951 4.5987 -48.255 13.0261 -73.142c7.557 -22.3277 11.223 -40.1285 11.223 -55.2966
c0 -6.7487 -0.7257 -12.9762 -2.1574 -18.8492c-2.9678 -12.2158 -9.9063 -23.2971 -18.7997 -30.0533c-3.1198 -2.37023 -3.9402 -3.36289 -4.7303 -5.73311c-0.2381 -0.73437 -0.3571 -1.6941 -0.3571 -2.65384s0.119 -1.91948 0.3571 -2.65384
c0.7901 -2.37023 1.6105 -3.36289 4.7303 -5.73311c8.8934 -6.75612 15.8319 -17.8374 18.7997 -30.0532c1.4348 -5.8825 2.1627 -12.1108 2.1627 -18.8608c0 -15.1708 -3.6768 -32.977 -11.2688 -55.416c-7.141 -21.11 -11.0003 -40.183 -12.4082 -61.403
c-0.3615 -5.431 -0.5433 -10.874 -0.5433 -16.337c0 -49.653 15.0147 -101.026 46.6513 -160.265c4.4669 -8.377 7.1309 -13.128 7.8298 -13.979c1.8217 -2.213 4.4051 -3.284 6.9732 -3.284c3.1437 0 6.26445 1.605 7.93694 4.682
c0.74239 1.369 1.11751 2.692 1.11751 4.083c0 1.759 -0.60018 3.627 -1.81643 5.834c-14.5768 26.328 -21.8872 57.001 -21.8872 91.621c0 15.273 1.423 31.315 4.2726 48.09c4.4264 26.073 10.7369 49.917 21.6156 81.692c1.0433 3.049 1.53963 4.73 2.5728 8.762
l0.7293 2.836l0.0303875 21.8383l0.0202583 21.8284l-0.759688 3.0488c-6.36111 25.5458 -21.099 47.1513 -46.7967 68.615c-2.0259 1.69157 -4.5582 3.72754 -5.7028 4.59865c-0.319 0.2431 -0.4786 0.349456 -0.4786 0.455813c0 0.106356 0.1596 0.212712 0.4786 0.455812
c2.2082 1.67131 6.7359 5.40898 9.8051 8.11346c23.2262 20.4002 36.6676 40.8915 42.6944 65.1002l0.759688 3.0489l-0.0202583 21.8283l-0.0303875 21.8384l-0.7293 2.836c-1.03317 4.032 -1.5295 5.713 -2.5728 8.762c-10.2 29.749 -16.2573 52.185 -20.8154 77.012
c-3.4323 18.733 -5.1481 36.509 -5.1481 53.324c0 34.545 7.2419 65.035 21.7194 91.442c1.81313 3.292 1.96506 3.788 1.96506 6.027c0 5.165 -4.01599 9.043 -9.04658 9.043c-0.435 0 -0.8775 -0.029 -1.3257 -0.089z" />
    </font>
</defs>
</svg>
